<?xml version="1.0" encoding="UTF-8"?>
<svg id="Layer_1" data-name="Layer 1" xmlns="http://www.w3.org/2000/svg" xmlns:xlink="http://www.w3.org/1999/xlink" viewBox="0 0 734.08 734.08">
  <defs>
    <style>
      .cls-1 {
        fill: url(#radial-gradient);
      }
    </style>
    <radialGradient id="radial-gradient" cx="370.88" cy="367.83" fx="370.88" fy="367.83" r="380.28" gradientTransform="translate(50.34 -48.35) rotate(7.91)" gradientUnits="userSpaceOnUse">
      <stop offset="0" stop-color="#fff"/>
      <stop offset=".15" stop-color="#fafafa"/>
      <stop offset=".31" stop-color="#edeeee"/>
      <stop offset=".47" stop-color="#d8d9d9"/>
      <stop offset=".64" stop-color="#bbb"/>
      <stop offset=".81" stop-color="#949595"/>
      <stop offset=".97" stop-color="#666767"/>
      <stop offset="1" stop-color="#5f6060"/>
    </radialGradient>
  </defs>
  <path class="cls-1" d="M373.59,441.36l2.04,1.08,2.05-1.07-.4,2.28,1.65,1.62-2.29.32-1.03,2.07-1.01-2.08-2.29-.34,1.66-1.61-.38-2.28ZM386.91,450.53l-9.28,8.97,12.77,1.91,5.66,11.6,5.76-11.55,12.78-1.8-9.21-9.05,2.24-12.71-11.45,5.96-11.4-6.06,2.13,12.73ZM423.88,440.13l-9.28,8.97,12.77,1.91,5.66,11.6,5.76-11.55,12.78-1.8-9.21-9.05,2.24-12.71-11.45,5.96-11.4-6.06,2.13,12.73ZM451.44,491.66l-12.87,29.09,30.92-7.48,23.69,21.23,2.44-31.72,27.51-15.97-29.41-12.12-6.69-31.1-20.62,24.23-31.64-3.25,16.67,27.09ZM494.38,579.98l-.95,45.55,36.74-26.95,43.03,14.98-14.28-43.27,27.55-36.29-45.56.21-26-37.41-13.88,43.4-43.62,13.17,36.98,26.61ZM643.6,508.65l-1.8-1.45-.06,2.31-1.94,1.26,2.18.77.6,2.23,1.41-1.84,2.31.12-1.31-1.9.82-2.16-2.22.66ZM638.37,522.34l-10.05-8.1-.32,12.91-10.81,7.05,12.18,4.29,3.37,12.46,7.84-10.25,12.89.65-7.33-10.63,4.6-12.06-12.37,3.68ZM653.25,557.75l-10.05-8.1-.32,12.91-10.81,7.05,12.18,4.29,3.37,12.46,7.84-10.25,12.89.65-7.33-10.63,4.6-12.06-12.37,3.68ZM605.52,591.46l-30.46-9.18,11.24,29.76-18.14,26.13,31.78-1.5,19.25,25.33,8.4-30.68,30.04-10.48-26.59-17.47-.68-31.8-24.83,19.89ZM523.18,644.98l-45.32,4.68,31.28,33.13-9.55,44.55,41.17-19.51,39.42,22.85-5.84-45.19,33.91-30.42-44.78-8.41-18.46-41.66-21.84,39.99ZM370.79,457.58l-2.3-.19,1.25,1.95-.89,2.13,2.24-.59,1.75,1.51.13-2.31,1.98-1.2-2.15-.84-.53-2.25-1.46,1.79ZM374.14,471.85l-12.87-1.07,6.98,10.86-4.99,11.9,12.49-3.28,9.78,8.43.74-12.89,11.04-6.7-12.03-4.69-2.96-12.57-8.18,9.99ZM406.32,492.81l-12.87-1.07,6.98,10.86-4.99,11.9,12.49-3.28,9.78,8.43.74-12.89,11.04-6.7-12.03-4.69-2.96-12.57-8.18,9.99ZM385.72,547.49l-30.36,9.49,26,18.33-.36,31.81,25.46-19.07,30.14,10.17-10.26-30.11,18.98-25.52-31.81.46-18.41-25.94-9.39,30.39ZM347.58,637.99l-34.89,29.3,44.48,9.87,17.08,42.24,23.13-39.25,45.45-3.2-30.18-34.13,11.01-44.21-41.79,18.16-38.65-24.13,4.36,45.35ZM457.38,609.13l-21.38-6.44,7.89,20.89-12.73,18.34,22.3-1.05,13.51,17.78,5.89-21.54,21.08-7.36-18.66-12.26-.48-22.32-17.43,13.96ZM457.28,575.11l-6.92-5.58-.22,8.89-7.44,4.86,8.38,2.96,2.32,8.58,5.4-7.06,8.88.45-5.04-7.32,3.17-8.3-8.52,2.54ZM274.82,399.04l-2.25-.52.95,2.11-1.2,1.98,2.3-.26,1.51,1.75.47-2.26,2.13-.9-2.01-1.14-.2-2.3-1.71,1.56ZM322.37,446.82l-12.57-2.93,5.32,11.76-6.67,11.05,12.83-1.43,8.45,9.76,2.61-12.64,11.89-5.02-11.22-6.39-1.1-12.86-9.54,8.7ZM272.27,453.63l-12.57-2.93,5.32,11.76-6.67,11.05,12.83-1.43,8.45,9.76,2.61-12.64,11.89-5.02-11.22-6.39-1.1-12.86-9.54,8.7ZM326.75,491.98l-29.72-11.35,9.06,30.49-19.98,24.75,31.8.8,17.37,26.65,10.59-30,30.71-8.28-25.26-19.34,1.62-31.77-26.2,18.04ZM231.86,575.02l-38.78,23.91,42.57,16.24,10.76,44.27,28.6-35.47,45.43,3.45-24.9-38.16,17.32-42.14-43.98,11.89-34.73-29.5-2.29,45.5ZM299.1,674.37l-8.82-30.56-18.9,25.59-31.79-1.06,18.5,25.88-10.83,29.91,30.33-9.59,25.1,19.55.25-31.81,26.34-17.83-30.18-10.07ZM186.64,633.61l-28.52-35.53-10.86,44.25-42.61,16.14,38.73,24,2.19,45.51,34.79-29.42,43.96,11.98-17.23-42.18,24.98-38.1-45.44,3.35ZM261.38,403.92l-1.09-2.04-.96,2.11-2.28.41,1.71,1.56-.32,2.29,2.01-1.14,2.08,1.01-.46-2.27,1.6-1.67-2.3-.26ZM217.52,418.71l-6.08-11.39-5.34,11.75-12.71,2.26,9.53,8.71-1.77,12.79,11.23-6.37,11.61,5.64-2.59-12.65,8.95-9.3-12.83-1.45ZM270.15,498.83l-6.08-11.39-5.34,11.75-12.71,2.26,9.53,8.71-1.77,12.79,11.23-6.37,11.61,5.64-2.59-12.65,8.95-9.3-12.83-1.45ZM193.96,465.25l-24.44-20.36-1.29,31.78-26.91,16.96,29.83,11.05,7.81,30.84,19.72-24.96,31.74,2.1-17.64-26.47,11.81-29.54-30.63,8.6ZM97.24,482.31l-43.54-13.41,15.84,42.72-26.21,37.27,45.52-1.86,27.34,36.45,12.3-43.87,43.11-14.74-37.92-25.25-.7-45.56-35.74,28.26ZM181.05,558.88l-6.19-21.45-13.27,17.96-22.32-.75,12.98,18.17-7.6,20.99,21.29-6.73,17.62,13.72.17-22.33,18.49-12.51-21.18-7.07ZM209.57,540.35l.93-8.84-7.58,4.64-8.12-3.62,2.07,8.64-5.95,6.6,8.86.71,4.44,7.7,3.41-8.21,8.69-1.84-6.75-5.78ZM360.11,290.44l1.66-1.61-2.29-.34-1.01-2.08-1.03,2.07-2.29.32,1.65,1.62-.4,2.28,2.05-1.07,2.04,1.08-.38-2.28ZM347.17,283.55l9.28-8.97-12.77-1.91-5.66-11.6-5.76,11.55-12.78,1.8,9.21,9.05-2.24,12.71,11.45-5.96,11.4,6.06-2.13-12.73ZM310.2,293.95l9.28-8.97-12.77-1.91-5.66-11.6-5.76,11.55-12.78,1.8,9.21,9.05-2.24,12.71,11.45-5.96,11.4,6.06-2.13-12.73ZM282.64,242.42l12.87-29.09-30.92,7.48-23.69-21.23-2.44,31.72-27.51,15.97,29.41,12.12,6.69,31.1,20.62-24.23,31.64,3.25-16.67-27.09ZM239.7,154.1l.95-45.55-36.74,26.95-43.03-14.98,14.28,43.27-27.55,36.29,45.56-.21,26,37.41,13.88-43.4,43.62-13.17-36.98-26.61ZM90.48,225.43l1.8,1.45.06-2.31,1.94-1.26-2.18-.77-.6-2.23-1.41,1.84-2.31-.12,1.31,1.9-.82,2.16,2.22-.66ZM95.71,211.73l10.05,8.1.32-12.91,10.81-7.05-12.18-4.29-3.37-12.46-7.84,10.25-12.89-.65,7.33,10.63-4.6,12.06,12.37-3.68ZM80.83,176.33l10.05,8.1.32-12.91,10.81-7.05-12.18-4.29-3.37-12.46-7.84,10.25-12.89-.65,7.33,10.63-4.6,12.06,12.37-3.68ZM128.56,142.62l30.46,9.18-11.24-29.76,18.14-26.13-31.78,1.5-19.25-25.33-8.4,30.68-30.04,10.48,26.59,17.47.68,31.8,24.83-19.89ZM210.9,89.1l45.32-4.68-31.28-33.13,9.55-44.55-41.17,19.51L153.9,3.41l5.84,45.19-33.91,30.42,44.78,8.41,18.46,41.66,21.84-39.99ZM363.29,276.5l2.3.19-1.25-1.95.89-2.13-2.24.59-1.75-1.51-.13,2.31-1.98,1.2,2.15.84.53,2.25,1.46-1.79ZM359.94,262.23l12.87,1.07-6.98-10.86,4.99-11.9-12.49,3.28-9.78-8.43-.74,12.89-11.04,6.7,12.03,4.69,2.96,12.57,8.18-9.99ZM327.76,241.27l12.87,1.07-6.98-10.86,4.99-11.9-12.49,3.28-9.78-8.43-.74,12.89-11.04,6.7,12.03,4.69,2.96,12.57,8.18-9.99ZM348.36,186.59l30.36-9.49-26-18.33.36-31.81-25.46,19.07-30.14-10.17,10.26,30.11-18.98,25.52,31.81-.46,18.41,25.94,9.39-30.39ZM386.49,96.09l34.89-29.3-44.48-9.87-17.08-42.24-23.13,39.25-45.45,3.2,30.18,34.13-11.01,44.21,41.79-18.16,38.65,24.13-4.36-45.35ZM276.7,124.95l21.38,6.44-7.89-20.89,12.73-18.34-22.3,1.05-13.51-17.78-5.89,21.54-21.08,7.36,18.66,12.26.48,22.32,17.43-13.96ZM276.8,158.96l6.92,5.58.22-8.89,7.44-4.86-8.38-2.96-2.32-8.58-5.4,7.06-8.88-.45,5.04,7.32-3.17,8.3,8.52-2.54ZM459.26,335.04l2.25.52-.95-2.11,1.2-1.98-2.3.26-1.51-1.75-.47,2.26-2.13.9,2.01,1.14.2,2.3,1.71-1.56ZM411.71,287.26l12.57,2.93-5.32-11.76,6.67-11.05-12.83,1.43-8.45-9.76-2.61,12.64-11.89,5.02,11.22,6.39,1.1,12.86,9.54-8.7ZM461.81,280.45l12.57,2.93-5.32-11.76,6.67-11.05-12.83,1.43-8.45-9.76-2.61,12.64-11.89,5.02,11.22,6.39,1.1,12.86,9.54-8.7ZM407.33,242.1l29.72,11.35-9.06-30.49,19.98-24.75-31.8-.8-17.37-26.65-10.59,30-30.71,8.28,25.26,19.34-1.62,31.77,26.2-18.04ZM502.22,159.06l38.78-23.91-42.57-16.24-10.76-44.27-28.6,35.47-45.43-3.45,24.9,38.16-17.32,42.14,43.98-11.89,34.73,29.5,2.29-45.5ZM434.98,59.7l8.82,30.56,18.9-25.59,31.79,1.06-18.5-25.88,10.83-29.91-30.33,9.59L431.4,0l-.25,31.81-26.34,17.83,30.18,10.07ZM547.44,100.47l28.52,35.53,10.86-44.25,42.61-16.14-38.73-24-2.19-45.51-34.79,29.42-43.96-11.98,17.23,42.18-24.98,38.1,45.44-3.35ZM472.69,330.15l1.09,2.04.96-2.11,2.28-.41-1.71-1.56.32-2.29-2.01,1.14-2.08-1.01.46,2.27-1.6,1.67,2.3.26ZM516.55,315.37l6.08,11.39,5.34-11.75,12.71-2.26-9.53-8.71,1.77-12.79-11.23,6.37-11.61-5.64,2.59,12.65-8.95,9.3,12.83,1.45ZM463.93,235.25l6.08,11.39,5.34-11.75,12.71-2.26-9.53-8.71,1.77-12.79-11.23,6.37-11.61-5.64,2.59,12.65-8.95,9.3,12.83,1.45ZM540.12,268.83l24.44,20.36,1.29-31.78,26.91-16.96-29.83-11.05-7.81-30.84-19.72,24.96-31.74-2.1,17.64,26.47-11.81,29.54,30.63-8.6ZM636.83,251.77l43.54,13.41-15.84-42.72,26.21-37.27-45.52,1.86-27.34-36.45-12.3,43.87-43.11,14.74,37.92,25.25.7,45.56,35.74-28.26ZM553.02,175.19l6.19,21.45,13.27-17.96,22.32.75-12.98-18.17,7.6-20.99-21.29,6.73-17.62-13.72-.17,22.33-18.49,12.51,21.18,7.07ZM524.5,193.73l-.93,8.84,7.58-4.64,8.12,3.62-2.07-8.64,5.95-6.6-8.86-.71-4.44-7.7-3.41,8.21-8.69,1.84,6.75,5.78ZM290.44,373.97l-1.61-1.66-.34,2.29-2.08,1.01,2.07,1.03.32,2.29,1.62-1.65,2.28.4-1.07-2.05,1.08-2.04-2.28.38ZM283.55,386.91l-8.97-9.28-1.91,12.77-11.6,5.66,11.55,5.76,1.8,12.78,9.05-9.21,12.71,2.24-5.96-11.45,6.06-11.4-12.73,2.13ZM293.95,423.88l-8.97-9.28-1.91,12.77-11.6,5.66,11.55,5.76,1.8,12.78,9.05-9.21,12.71,2.24-5.96-11.45,6.06-11.4-12.73,2.13ZM276.5,370.79l.19-2.3-1.95,1.25-2.13-.89.59,2.24-1.51,1.75,2.31.13,1.2,1.98.84-2.15,2.25-.53-1.79-1.46ZM262.23,374.14l1.07-12.87-10.86,6.98-11.9-4.99,3.28,12.49-8.43,9.78,12.89.74,6.7,11.04,4.69-12.03,12.57-2.96-9.99-8.18ZM186.59,385.72l-9.49-30.36-18.33,26-31.81-.36,19.07,25.46-10.17,30.14,30.11-10.26,25.52,18.98-.46-31.81,25.94-18.41-30.39-9.39ZM96.09,347.58l-29.3-34.89-9.87,44.48-42.24,17.08,39.25,23.13,3.2,45.45,34.13-30.18,44.21,11.01-18.16-41.79,24.13-38.65-45.35,4.36ZM158.96,457.28l5.58-6.92-8.89-.22-4.86-7.44-2.96,8.38-8.58,2.32,7.06,5.4-.45,8.88,7.32-5.04,8.3,3.17-2.54-8.52ZM335.04,274.82l.52-2.25-2.11.95-1.98-1.2.26,2.3-1.75,1.51,2.26.47.9,2.13,1.14-2.01,2.3-.2-1.56-1.71ZM287.26,322.37l2.93-12.57-11.76,5.32-11.05-6.67,1.43,12.83-9.76,8.45,12.64,2.61,5.02,11.89,6.39-11.22,12.86-1.1-8.7-9.54ZM280.45,272.27l2.93-12.57-11.76,5.32-11.05-6.67,1.43,12.83-9.76,8.45,12.64,2.61,5.02,11.89,6.39-11.22,12.86-1.1-8.7-9.54ZM242.1,326.75l11.35-29.72-30.49,9.06-24.75-19.98-.8,31.8-26.65,17.37,30,10.59,8.28,30.71,19.34-25.26,31.77,1.62-18.04-26.2ZM159.06,231.86l-23.91-38.78-16.24,42.57-44.27,10.76,35.47,28.6-3.45,45.43,38.16-24.9,42.14,17.32-11.89-43.98,29.5-34.73-45.5-2.29ZM59.7,299.1l30.56-8.82-25.59-18.9,1.06-31.79-25.88,18.5-29.91-10.83,9.59,30.33L0,302.68l31.81.25,17.83,26.34,10.07-30.18ZM330.15,261.38l2.04-1.09-2.11-.96-.41-2.28-1.56,1.71-2.29-.32,1.14,2.01-1.01,2.08,2.27-.46,1.67,1.6.26-2.3ZM443.64,360.11l1.61,1.66.34-2.29,2.08-1.01-2.07-1.03-.32-2.29-1.62,1.65-2.28-.4,1.07,2.05-1.08,2.04,2.28-.38ZM450.53,347.17l8.97,9.28,1.91-12.77,11.6-5.66-11.55-5.76-1.8-12.78-9.05,9.21-12.71-2.24,5.96,11.45-6.06,11.4,12.73-2.13ZM440.13,310.2l8.97,9.28,1.91-12.77,11.6-5.66-11.55-5.76-1.8-12.78-9.05,9.21-12.71-2.24,5.96,11.45-6.06,11.4,12.73-2.13ZM457.58,363.29l-.19,2.3,1.95-1.25,2.13.89-.59-2.24,1.51-1.75-2.31-.13-1.2-1.98-.84,2.15-2.25.53,1.79,1.46ZM471.85,359.94l-1.07,12.87,10.86-6.98,11.9,4.99-3.28-12.49,8.43-9.78-12.89-.74-6.7-11.04-4.69,12.03-12.57,2.96,9.99,8.18ZM547.49,348.36l9.49,30.36,18.33-26,31.81.36-19.07-25.46,10.17-30.14-30.11,10.26-25.52-18.98.46,31.81-25.94,18.41,30.39,9.39ZM637.99,386.49l29.3,34.89,9.87-44.48,42.24-17.08-39.25-23.13-3.2-45.45-34.13,30.18-44.21-11.01,18.16,41.79-24.13,38.65,45.35-4.36ZM575.11,276.8l-5.58,6.92,8.89.22,4.86,7.44,2.96-8.38,8.58-2.32-7.06-5.4.45-8.88-7.32,5.04-8.3-3.17,2.54,8.52ZM399.04,459.26l-.52,2.25,2.11-.95,1.98,1.2-.26-2.3,1.75-1.51-2.26-.47-.9-2.13-1.14,2.01-2.3.2,1.56,1.71ZM446.82,411.71l-2.93,12.57,11.76-5.32,11.05,6.67-1.43-12.83,9.76-8.45-12.64-2.61-5.02-11.89-6.39,11.22-12.86,1.1,8.7,9.54ZM491.98,407.33l-11.35,29.72,30.49-9.06,24.75,19.98.8-31.8,26.65-17.37-30-10.59-8.28-30.71-19.34,25.26-31.77-1.62,18.04,26.2ZM575.02,502.22l23.91,38.78,16.24-42.57,44.27-10.76-35.47-28.6,3.45-45.43-38.16,24.9-42.14-17.32,11.89,43.98-29.5,34.73,45.5,2.29ZM674.37,434.98l-30.56,8.82,25.59,18.9-1.06,31.79,25.88-18.5,29.91,10.83-9.59-30.33,19.55-25.1-31.81-.25-17.83-26.34-10.07,30.18ZM403.92,472.69l-2.04,1.09,2.11.96.41,2.28,1.56-1.71,2.29.32-1.14-2.01,1.01-2.08-2.27.46-1.67-1.6-.26,2.3Z"/>
</svg>