<?xml version="1.0" encoding="UTF-8"?>
<svg id="Layer_2" data-name="Layer 2" xmlns="http://www.w3.org/2000/svg" viewBox="0 0 605.57 815.86">
  <defs>
    <style>
      .cls-1 {
        fill: #231f20;
      }

      .cls-2 {
        fill: #fff;
      }

      .cls-3 {
        fill: #ed2024;
      }
    </style>
  </defs>
  <path class="cls-2" d="M351.2,571.67s48.25-58.14,50.53-58.33c0,0,19.7-1.43,38.39-9.05-9.42,6.81-15.71,7.55-17.23,8.74,0,0,15.42-2.51,31.89-11.92,6.51-3.72,16.81-14.28,11.48-20.71-1.08.54-8.81,4.68-8.74,3.02.1-2.3,4.8-6.04,6.61-7.1,4.71-2.76,6.9-6.89,6.28-12.42-.27-2.4-.83-5.85-3.45-6.82-3.58,1.5-7.76,3.46-11.36,4.1-.51.09-1.39-1.37-1.1-1.71,2.52-2.96,8.62-5.13,12.54-9.7,3.69-4.31,3.07-11.26-.05-15.41-3.73-4.96-8.11,1.04-18.43,1.13-.51,0-1.89-.82-1.7-1.22,1.41-3,14.77-4.19,16.01-12.52,1.15-7.74-4.91-13.92-12.66-13.96-7.82-.03-15.29,1.99-22.39,4.59,3.71.27,6.99.7,10.05,2.29-8,.33-14.56,2.86-21.41,2.36-8.14-.59-15.62.95-22.99,4.34,2.54-4.25,6.62-5.59,11.09-7.13l-6.89-3.51c3.27-.66,5.4-.24,8.43.16-3.61-11.93,1.7-17.64,1.41-29.25-.25-9.81-3.42-19.54-10.51-26.11-4.15-3.85-10.24-4.3-14.35-1.34l5.53,2.33c2.1,3.45,5.13,16.06,1.82,18.07-.97.58-2.51.91-4.14,1.21l-.4,8.72c3.02.85,6.04,1.73,8.86,3.33l-10.33.94c3.05,1.84,5.31,2.44,8.7,3.76-2.74.78-5.02.77-8.41.52-.67,18.04-11.61,28.43-14.54,44.89-1.42,7.96-2.25,15.91-3.1,23.95-.52,4.97-2.76,8.66-6.16,12.08-5.98,6.01-12,11.42-18.48,16.96-16.71,14.26-34.81,25.62-54.83,34.56-12,5.36-29.86,15.61-36.2,27.52,14.84-10.17,29.17-19.14,45.18-25.12-22.24,13.34-40.04,25.6-57.98,44.39-.5-5.98,1.89-11.03,4.44-16.02-12.33-10.4-29.91,1.98-39.54,10.57-9.37,8.36-16.08,18.76-21.54,29.92-1.81,3.69-.76,5.74,1.49,8.69,9.98,13.06,19.79,25.91,31.4,37.74,5.75,5.86,12.37,10.71,19.24,14.88,17.67,10.71,32.14,1.34,47.32-6.9,17.85-9.69,33.35-21.86,47.39-36.56,12.59-13.18,23.73-27.06,34.37-41.9,9.62-13.41,16.76-28.08,25.79-42.12-18.79,25.67-36.55,46.56-36.55,46.56,0,0-58.51,74.08-89.4,77.97-5.88,1.48-24.47,2.94-23.89-3.6,47.63,3.04,106.88-73.36,112.52-79.86Z"/>
  <polygon class="cls-2" points="429.56 69.35 439.72 68.91 455.98 60.13 472.25 59.41 492.55 59.41 511.92 49.72 534.97 49.72 548.41 55.59 552.59 59.58 561.88 66.44 577.69 66.44 592.75 72.92 598.84 89.5 597.74 100.32 596.49 110.12 601.04 125.52 602.68 142.22 602.07 155.15 599.86 166.88 597.74 175.84 595.43 181.86 589.61 187.58 579.46 197.57 564.04 207.85 539.53 220.58 503.94 230.72 455.59 237.42 414.15 233.69 382.05 225.62 352.69 210.42 344 199.08 341.6 191.64 341.6 178.29 342.75 163.28 349.91 153.41 351.15 139.76 351.15 127.74 354.3 114.77 360.82 106.89 373.93 100.32 382.05 95.02 387.79 85.18 406.87 81.23 418.98 80.13 429.56 69.35"/>
  <path class="cls-2" d="M126.18,437.43l13.1-8.36h15.95l22.22,8.36,13.46,13.67,18.63,19.94,8.74,12.83-1.71,5.21s-12.15-7.79-12.15-8.36-20.13-17.28-20.32-18.23-19.63-13.29-19.63-13.29l-12.08-6.54-16.14-1.72h-10.06v-3.51Z"/>
  <path class="cls-1" d="M293.99,205.28c-147.37,0-266.83,118.99-266.83,265.77s119.46,265.77,266.83,265.77,266.83-118.99,266.83-265.77-119.46-265.77-266.83-265.77ZM301.15,680.64c-129.49,0-234.47-105.07-234.47-234.69s104.97-234.69,234.47-234.69,234.47,105.07,234.47,234.69-104.97,234.69-234.47,234.69Z"/>
  <rect class="cls-1" x="55.8" y="586.05" width="44.63" height="16.21"/>
  <rect class="cls-1" x="242.38" y="719.16" width="20.51" height="14.4"/>
  <rect class="cls-1" x="264.88" y="729.82" width="28" height="14.13"/>
  <polygon class="cls-1" points="125.04 571.99 233.93 666.81 270.15 666.81 441.54 621.13 448.3 641.24 384.05 680.64 290.23 696.39 205.94 679.3 136.32 639.19 100.43 586.05 125.04 571.99"/>
  <rect class="cls-1" x="424.95" y="235.72" width="9.23" height="9.23"/>
  <path class="cls-1" d="M531.06,492.18c-21.45,107.47-116.23,188.46-229.91,188.46s-208.46-80.99-229.91-188.46H28c10.82,136.9,125.77,244.63,265.99,244.63s255.18-107.74,265.99-244.63h-28.92Z"/>
  <g>
    <path d="M99.8,504.33v-.02s-.01,0,0,.02Z"/>
    <path d="M600.15,113c-4.25-12.77,2.97-9.73,2.18-18.7-.64-7.27-2.34-14.58-6.52-20.71-4.34-6.36-11.76-10.26-19.32-11.16-6.9-.83-11.05,3.33-14.3.65l-14.06-11.61c-2.97-2.45-6.07-3.99-9.6-5.06h-33.25c-3.86,1.97-7.47,4.13-11.33,6.54-18.66,11.68-21.52-3.55-40.82,5.57l-8.6,4.07-14.59,8.3c4.51.17,9.36.3,13.97-.81,5.83-1.4,8.08-11.16,24.28-7.78,13.3,2.77,14.25-.61,26.72-.74,11.43-.12,12.44-7.66,24.68-2.24,4.2,1.86,8.2,1.77,12.54,1.02l7.42-1.27c-5.17-4.19-10.34,3.48-22.35-2.94-1.1-.59-3.23-.76-4.88-1.17,1.88-3.82,9.03-.53,15.68-1.67,14.16-2.42,16.43,6.93,30.96,15.31,5.22,3.01,8.91.4,18.16,1.39,5.84.63,8.86,5.25,8.74,10.76-.18,7.97-.15,15.63-1.49,23.57-.18.95-2.85,1.19-4.04,1.02-6.9-1.02-12.85,3.86-13.37,11-.46,6.27-4.85,11.01-10.78,12.54-9.85,2.53-20.02,1.66-24.92,9.5-3.75,6.01-10.03,9.82-17.3,8.88l-5.85-.76c-3.07-.4-6.49-1.45-9.59-.62-10.97,2.95-25.21,8.3-33.49,16.18-4.82,4.58-11.17,6.69-17.93,4.91-5.83-1.54-11.57-3.1-17.71-3.8-5.05-.57-9.46-2.22-14.29-4.19,2.99,4.58,8.05,6.51,12.93,7.82,6.99,1.88,13.78,3.5,20.87,4.76,13.84,2.47,20.59-6.3,35.72-8.88,3.72-.63,7.34-1.07,10.88-2.17,4.22-1.31,8.32-3.13,12.7-3.57,12.05-1.22,21.9-1.49,29.93-12.29,2.14-2.88,5.12-4.71,8.46-6.1,4.52-1.88,8.93-3.68,13.28-5.76,15.65-7.49,9.66-16.87,21.65-19.36,3.73-.77,7.56-2.52,9.35-5.97,4.36-8.4-3.18-18.28-2.9-21.91.21-2.74,1.65-5.34,2.53-8.24,5.8,3.09-.4,4.07,3.71,10.4l.92,1.42c.21.32-1.11,1.31-1.13,1.71l-.46,8.37-.7,11.5c-.28,4.63-3.44,7.95-8.05,8.43-4.59.47-5.34,3.06-7.05,6.57l-3.34,6.82c-.52,1.06-2.06,2.69-2.84,3.96-.83,1.36-7.79,5.33-7.79,5.33l-3.02,1.73c-.46,1.13-43.86,22.82-43.86,22.82,0,0-63.35,12.64-69.23,13.22-2.32.23-4.24.49-6.48.29.63-3.39-1.32-6-4.44-6.82l-15.83-4.18c-11.99-3.17-15.57-9.8-16.19-9.58l-1.86.65c-2.43-2.34-5.91-3.16-9.04-4.42-11.08-4.45-15.73-4.06-27.5-1.24.97,2.12,2.3,4.09,4.4,4.45,9.19,1.55,17.57,2.42,25.16,7.97,3.36,2.46,6.84,3.69,10.84,4.64l19.34,4.55c1.58.37,2.81,1.98,2.69,3.33-2.59-.46-47.69-9.62-47.69-9.62-1.46-2.38-2.67-2.16-4.87-2.61-1.94-.4-4.15-1.53-6.15-2.21-4.81-1.63-9.05-4.54-12.51-8.1-3.29-3.39-3.86-7.42-2.92-11.83l1.99-9.34-2.23,1.4c-2.65-6.53-.25-18.02,5.09-23.71,9.61-10.24,15.95-6,21.7-12.09l8.26-8.75c4.1-4.34,10.17-6.66,16.24-7.38l16.77-1.99c4.65-.55,9.63-1.39,14.17-.54,10.91,2.04,17.09-3,23.9-11.14,1.25-1.49,4.34-2.28,6.27-1.47,3.4,1.44,1.11,7.89,7.12,9.79,6.9,2.19,16.5,1.72,21.19-4.94l1.48-6.54c5.38.81,9.96-.48,14.55-3.74,3.81,4.17-1.24,7.18,1.37,12.56l-3.57.88,5.48,1.6c5.71,1.67,10.84,1.6,16.21-1.1,2.44-1.22,5.16-2.33,7.11-4.41,1.72-1.83,4.23-3.72,6.84-2.93l14.73,4.47c11.38,3.46,12.54-5.04,17.45,1-.32-4.05-4.83-4.04-7.99-3.37-3.64.77-7.43,0-11.16-.6-9.69-1.56-9.02-1.3-16.01-7.22l-9.59-.93c-5.8-.56-8.78,3.55-17.65-1.43-2.92-1.64-4.89-.77-7.33.97-3.72,2.65-8.73,2.01-13.18,1.89-9.26-.25-18-.68-27.2-1.5-4.6-.41-9.78-.22-13.21,2.69l-5.02,4.27c-4.22,3.58-15.59,1.46-22.61,4.63-2.35,1.06-5.05,2.05-7.66,1.69-7.82-1.06-14.74.73-22.12,2.85-18.14,5.2-13.29,10.91-19.67,15.75-6.84,5.18-12.76,3.48-19.4,10.03-.44-2.32-1.05-5.3-2.95-7.08-20.11-18.9-45.08-17.75-71.26-14.86-7.6-7.86-8.45-13.68-19.18-19.62-3.99-2.21-8.21-3.14-12.78-3.12-20.4.07-46.97,4.72-65.92,11.94-5.47,2.09-9.89,5.08-13.89,9.23-3.34,3.46-7.04,6.27-10.71,9.45-7.47,6.46-14.08,13.48-20.22,21.2-2.61,3.28-4.39,7.22-5.07,11.34l-4.41,26.66c-2.42,14.61-3.38,29.03-3.58,43.86-.08,5.49,1.12,10.53,3.12,15.47,4.02,9.93-2.41,11.14,3.9,16.32,3.43,2.81,7.59,6.7,6.45,11.37-1.92-.52-4.02-1.32-5.25-.78-2.59,1.13-2.88,4.27-2.74,6.73.36,6.48,3.44,12.03,7.92,16.66,1.01,14.49,6.97,28.06,17.94,37.63,4.86,4.24,9.97,7.36,15.7,10.8-3.42,2.89-6.66,5.2-10.05,8.58,3.91.8,6.47.88,10.3,1.25.92-.23.76-.07-.12.54l-9.62,1.72c-.84,9.5,14.09,10.46,21.11,10.64-2.76,3.52-6.22,5.86-10.24,8.38,2.21,4.77,7.39,7.66,12.74,7.85,3.66.13,6.85-.94,10.19-2.1l.92-.32c1.29-.45-3.16,5.88,2.35,9.79l7.98,5.66c1.8,1.28,3.11,3.13,2.89,5.57l-.79,8.94c-.87,9.84,4.19,11.5-1.4,13.67-11.07,4.29-21.52,8.81-32.19,14.12l-37.78,18.83c-18.76,10.61-26.07,22.19-26.52,22.97-2.68,2.88-4.94,6.54-6.84,11.02-2.28,5.36-3.99,10.61-4.92,16.35-1.05,6.46-2.18,12.73-2.18,18.95v12.52c.06.04.47.61.48.75l.25,5.69c.91,20.54,9.43,42.47,17.3,61.51,2.99,7.23,6.09,13.93,9.79,20.79,2.29,4.25,5,7.97,7.76,11.96l6.3,9.09c.96.89,3.47.64,4.01,3.16,1.81,8.49,5.59,16.99,12.27,23.01,5.65,5.08,13.19,7.12,20.68,7.7,6.64.52,12.74-1.37,19.26-2.95l13.04,11.45c5.69,5,11.93,8.93,18.52,12.63,19.09,9.19,33.39,5.63,50.9-5.04,37.11-.02,72.36-6.73,107.72-17.78,17.55-5.89,36.38-14.14,51.46-25.14l-11.39-32.48-10.58-33.51-11.03-35.28,16.46-1.05c7.62-1.08,18.51-3.67,25.18-7.48l13.37-6c8.12-4.64,15.26-15.13,12.19-24.94-.69-2.19-.03-3.6,1.14-5.41,2.72-4.19,2.57-9.22,2.09-14.23l7.95-3.48c3.89-1.7,7.68-4.99,11.79-5.96,10.59-2.5,19.1-10.09,18.28-21.01l-1.15-15.37,1.81-26.74c1-14.82-1.86-29.1-5.39-43.56l-10.91-44.65c-1.12-4.58-.84-9.07-1.55-13.72l-1.76-11.54c-.33-2.16,3.06-3.85,4.49-5.17l15.04-13.89c3.99-3.69,9.34-5.52,13.97-8.36l21.65-13.27,18.07-11.39.06-14.68,10.25-8.24c5.75-4.62,9.65-10.97,13-17.57-3.89,3.53-7.1,7.37-11.27,10.51-7.64,5.75-15.87,9.98-24.3,14.44-6.82,3.61-13.19,6.75-20.52,9.5-24.66,9.26-50.47,14.41-76.91,15.24-19.67.61-38.5-.81-57.48-5.36-10.37-2.49-19.78-6.12-29.45-10.33-7.98-3.47-14.92-7.62-21.49-13.38-3.1-2.72-5.45-6.24-4.19-10.33,7.26,7.2,15.02,12.55,23.7,16.85.52,1.43,1.59,2.77,3.06,3.1l17.04,3.84c9.03,2.04,17.54,4.52,26.86,5.76,27.39,3.65,59.94,3.03,86.94-3.49,12.26-2.96,23.64-7.42,35.41-11.93,7.75-2.97,23.01-10.15,26.54-12.26,3.53-2.11,25.58-17.08,30.38-24.71,3.13-4.98,7.29-10.79,8.2-16.37-.08-1.99.2-4.03.34-6.03.81-11.77-1.55-23.06-5.26-34.2ZM492.42,69.43c.98.63-7.37,8.97-8.02,5.69,2.62-2.16,5-3.97,8.02-5.69ZM467.55,67.27c-3.77,1.06-6.97,1.29-10.64,1.26.82-2.25,9.95-2.72,10.64-1.26ZM451.37,74.34c1.33-.77,2.82-1.29,4.21-1.42-3.46,4.64-8.34,7.96-14.52,7.37l10.31-5.95ZM294.54,87.62c9.75-.44,19.01-1,28.68.99,10.31,2.12,19.91,7.03,27.72,14.05,2.85,2.56,1.85,7.63-.47,10.28-2.67,3.05-5.84,5.41-9.36,7.47l-19.85,11.65c-1.43.84-2.77,1.07-4.14.02-9.54-7.29-20.52-11.5-32.58-12.72-15.77-1.96-31.07.67-45.3,7.45-6.41,2.65-11.78,6-18.12,9.53,4.61-8.13,9.47-15.43,15.62-22.16,14.99-16.4,35.7-25.57,57.79-26.56ZM186.49,87.19c2.16-5.45,3.5-9.73,9.78-11.21,6.09-1.43,11.85-2.35,18.05-3.38,12.12-2.02,24.09-3.4,36.4-3.68,11.41-.26,16.39,5.99,22.17,14.25.33.47.74,1.55.76,2.07.02.51-1.12,1.28-1.65,1.43-8.68,2.39-15.9,6.31-24.03,11.43,2.65-4.04,2.72-8.9,7.28-11.67,1.07,1.57,2.75,3.48,4.69,2.95,2.09-.57,3.63-2.38,3.9-4.63-1.56-.55-2.69,2.85-5.2,1.39-2.45-1.43,2.74-5.07,1.04-6.53-1.88-1.6-4.17.52-4.53,2.35-.39,1.99-1.17,3.57-2.92,4.14l.42-4.24c.05-.51-.7-1.66-1.15-1.81-1.89-.62-2.08,2.55-5.41,6.91-.35.45-2.28.25-2.25-.38.16-4.14,5.1-4.69,5.86-7.38.16-.58-1.59-1.19-2.24-.96-7.75,2.77-5.46,7.96-8.69,10.6-.5.41-2.16.43-2.48-.1-1.15-1.94,3.19-6.62.33-7.26-2.8-.63-3.81,3.1-3.79,5.23.02,2.12-.51,3.62-2.66,4.82-1.96-3.43,2.75-7.41-1.06-9.72-2.97,3.83-2.42,9.2-6.15,12.22l1.36-8.49c-3.63.95-3.9,4.2-4.1,7.27-.13,2.07,1.27,5.07,3.85,4.7,1.77-.25,2.86-3.27,2.89-4.71.74.98,1.48,1.97,2.01,2.57.55.63,2.71-.53,3.05-1.3l1.61-3.55c1.63,1.46,2.94,2.38,4.34,1.86,1.78-.66,2.73-2.43,3.49-3.99,1.06,1.11,3.69,3.05,5.08,1.21l2.73-3.6c1.29,5.13-2.88,4.39-4.01,11.08l2.19,1.34c-16.44,11.09-28.15,21.28-36.3,40.28-3.55.47-14.48-17.43-16.3-20.55-3.03-5.21-5.93-10.16-8.27-15.64-2.16-5.07-2.1-10.3-.11-15.33ZM194.5,296.34l-5.86-15.73c-3.54,1.51,5.31,17.03-5.09,19.49-2.95.7-6.48.72-9.26-.62-5.04-2.44-9.35-5.71-13.46-9.43-4.12-3.73-6.73-8.32-8.93-13.39-3.28-7.59-4.43-15.8-2.78-23.95,1.25-6.16,5.75-11.32,12.13-11.79,5.52-.41,10.3,2.11,14.4,5.49,8.8,7.26,7.85,13.82,10.77,14.71,2.91.89,12.7-11.23,3.68-23.71-1.7-2.35-.23-5.68,1.24-7.88,3.99-5.99,4.72-13.21.94-19.29-3.87-6.21-8.73-4.52-14.19-5.07,1.42-2.55,2.81-4.62,4.11-7.43.61-1.3-2.35-2.41-3.99-2.67,2.38-4.1,5.24-7.76,7.89-11.68l11.2-16.61c4.84-7.17,9.94-13.77,17.14-18.96-9.45,11.66-12.53,31.8-9.85,46.07,1.99,10.63,4.01,20.96,8.43,31.26,1.16-6-.38-11.23-.29-16.84.15-9.43.55-18.6,3.46-27.45,2.77-8.45,8.4-21.89,19.71-17.55l11.77,4.51c2.51.96,5.46-.28,5.94-3.05,1.88-10.67,2.6-17.34-7.1-24.67-3.81-2.88-7.67-5.01-13.04-5.06,18.48-11.03,43.55-14.19,65.15-6.55-4.82,3.82-9.62,8.02-13.65,13.22-3.47,4.47,1.88,13.01,4.54,16.95.37.54,2.27.65,2.81.29l7-4.57c3.24-2.11,7.76-3.15,11.41-1.68,6.93,2.78,7.8,18.11,7.69,24.54-.15,8.65.49,17.07-1.74,25.81-1.6-6.94-3.02-13.02-5.11-19.33l-4.4-13.24c-.66-1.99-3.59-6.85-6.02-6.85-.72,0-2.12.75-2.66,1.39-9.2,10.87-12.5,39.08-4.04,51.68,3.67-1.56,6.75-3.23,10.22-5.08,5.71-3.05,12.87-3.46,18.87-.78,7.85,3.5,12.4,11.23,12.57,19.88.23,11.28-6.46,21.22-16.33,26.47-6.64,3.53-14.01,4.62-21.05,2.29-5.18-1.72-8.05-6.24-7.54-11.98l-5.27,1.54c-1.9.56-4.44,1.37-6.5.26-1.38-.75-2.75-2.96-3.05-4.91-.82-5.36,1.44-9.47,6.39-11.85-6.97-1.99-9.39,11.38-10.17,15.83-2.6-3.33-1.32-6.81-1.21-11.16-5.17,3.83-1.09,11.33-11.35,12.5-17.95,2.05-18.37-12.36-28.62-13.27-5.41-.48-10.07,3.36-11.88,8.34l6.58-4.03c1.19-.73,4.43-1.08,5.57-.26,2.71,1.97,4.35,5,5.52,7.94l2.49,6.3-14.09-3.57c-6.31,4.84-8.86,13.99-3.89,21.37l5.48-13.03c3.84,8.99,9.81,14.77,18.94,16.27,2.21.36,4.04,1.85,5.38,3.68,5.75,7.82,11.06,15.05,21.29,17.53,6,1.46,12.32,1.33,18.24-.42l20.5-6.09c1.13-.34,2.57-1.73,2.86-3.07l3.56-16.32,10.2-.16c7.84-.13,13.92-3.79,19.25-9.87-2.65,10.66-6.33,20.32-10.69,30-8.56,19.01-.02,28.45-.18,50.58-.06,7.99-3.05,15.96-10.07,20.31-10.96,6.8-24.48,8.89-37.02,6.04-9.17-2.08-17.14-6.48-24.6-11.91-3.77-2.75-7.19-5.24-11.33-7.66l15.54,16.93c-6.91.88-24.22-10.1-29.67-13.84-8.03-5.51-15.33-11.61-22.28-18.48-10.47-10.37-17.5-22.98-22.6-36.68ZM299.93,196.09c1.67,3.24,2.5,6.57,2.11,10.53-2.81.05-3.6-2.49-4-4.31-.5-2.24.01-4.32,1.89-6.22ZM293.63,192.12c.12-.56.4-1.32.65-1.67,1.02-1.42,4.26,1.1,5.15,2.78-2.14.04-4.05-.38-5.8-1.11ZM295.98,181.02c-.29-2.6,1.58-6.66,4.47-7.41,7.87-2.03,12.04,24.7,11.57,29.77l-6.36,1.77c-.95-9.4-1.84-17.73-9.68-24.14ZM268.48,280.57l8.56.03c13.13.05,25.71-4.26,35.77-12.83,1.5,6.63-.3,12.87-7.03,15.12-13.53,4.54-27.07,9.17-37.3-2.33ZM283.43,294.94c-1.65.1-3.23-1.34-3.49-3.04l19.48-3.06c.83,5.06-12.96,5.91-15.99,6.1ZM355.71,401.61c3.8,5.31,8.27,12.28,11.2,17.44.12.21-.3,1.54-.43,1.43l-.84-.74c-9.31-15.08-19.02-28.42-33.81-38.04-3.61-2.35-9.03-4.38-9.89-5.32-2.16-2.37,17.16,2.03,33.77,25.22ZM341.52,377.71c11-2.02,26.11.81,36.58,5.23-.83,12.39-1.78,17.47-6.86,29.01-8.79-13.47-16.24-25.32-29.72-34.24ZM354.72,445.44c1.35,6.17,5.57,9.44,3.66,11.59-1.68-2.94-3.07-5.64-4.49-8.89-7.86-18.1-22.51-43.47-38.96-54.86-2.03-2.27-5.43-3.26-5.79-7.08,19.67,10.6,33.25,34.74,43.45,54.14,2.13-3.61,4.62-6.6,8.56-6.35-4.19,2.46-7.54,6.42-6.44,11.44ZM248.58,392.16l-3.99-19.88c5.35,2.37,12.24,10.34,15.56,14.66l9.28,12.06-2.88-18.46,29.21.18-3.14,36.59c-.33,3.85-.9,7.08-1.65,10.24l-1.24-5.1-3.51,15.45c-2.64-6.53-3.99-12.32-7.11-18.37l2.99,22.87c-7.18.46-13.54.28-20.74-.04-3.7-5.36-3.36-15.61-6.21-22.16l.61,21.51c-15.3.49-31.1-11.27-40.93-22.07,2.72-5.94,4.3-11.75,4.5-18.38l1.47-48.48c6.37,5.72,10.53,12.3,14.28,19.48,3.19,6.1,5.3,12.32,7.89,18.85l7.18,18.13c.15.39,1.12.97,1.4.87.28-.1.7-.8.61-1.23l-3.58-16.7ZM265.39,452.96c16.29.82,32.09-4.28,44.47-14.82,8.47-8.02,12.6-18.74,10.91-30.49,9.76,11,17.81,23.32,23.81,37.08-18.49,8.22-36.46,15.57-55.06,22.49l-24.04,7c-1.94,0-4.12-.19-5.29-1.9l-3.21-4.7-11.74-15.7,20.15,1.03ZM311.8,407.62c1.04,1.42,2.78,3.78,2.47,5.5-1.72,9.46-7.67,17.34-16.62,21.48l2.02-50.3c1.61.59,2.4.99,3.57,1.65-.7,7.85,3.75,15.06,8.57,21.67ZM211.8,399.38c.23,1.59.29,3.1.28,4.71l-3.55-1.23c-.31,4.39-.49,7.22-1.44,11.28l-16.18-8.14,20.89-6.62ZM177.18,411.83c4.15-1.68,8.42-1.79,12.36.08,6.34,3.01,11.87,6.56,17.37,10.98,11.7,9.42,22.23,19.69,31.61,31.52,9.46,11.94,17.87,24.13,26.47,36.67,4.79,6.99,9.14,18.28,3.37,25.98-3.43,4.58-10.06,6.25-15.06,2.55-7.2-5.33-12.41-14.42-11.82-23.64.45-7.12,8.83-10.81,14.71-8.83l-7.5,3.09c-4.01,1.65-6.15,5.9-5.18,10.43,1.45,6.73,5.3,13.82,11.54,17.38,5.64,3.21,13.67-1.5,14.11-7.96.36-5.2-1.28-9.7-3.74-13.81-11.87-19.83-33.88-50.02-51.6-64.54-8.34-6.83-17.03-12.7-26.1-18.58-6.19-4.01-19.74,6.65-26.33,10.23,20.14,11.31,37.29,25.69,51.45,43.64,8.47,10.74,16.43,21.43,23.62,33.34-4.2-2.58-5.98-6.89-8.78-10.52-13.94-18.03-35.85-47.72-56.29-58.23l-14.19-7.29c6.46-5.33,12.82-9.57,20-12.48ZM257.91,502.92c.51,2.14.15,4.55-1.72,5.69-1.38.84-3.5.56-4.69-.34-1.25-.94-1.93-2.72-1.93-4.44,0-2.56,1.47-4.33,3.75-4.65,1.99-.28,3.96,1.14,4.59,3.75ZM139.52,432.8c19.17-3.85,30.82,4.46,44.91,15.79,6.03,4.85,11.1,10.02,16.18,16.06.19.22,17.42,21.09,12.72,19.09-3.53-1.5-22.92-19.61-27.29-23.62-5.49-5.04-10.95-9.17-17.4-12.71-9.45-5.19-19.23-9.19-30.13-10.02-3.17-.24-6.09-.18-8.79.16,4.24-2.36,8.07-4.41,9.8-4.76ZM169.82,635.71c-5.67-1.51-10.66-6.3-12.81-12.54-4.4-12.76.29-24.78,5.92-36.27,6.64-13.55,15.68-25.45,26.02-36.44,5.74-6.1,12.07-10.7,18.76-15.57,6.74-4.9,13.74-8.18,21.98-11.24-12.3-1.43-26.25,4.76-35.95,12.48-22.39,17.82-37.33,41.51-45.79,68.9-1.53-1.54-2.85-3.31-4.17-5.11-2.74-3.74-5.77-7.04-8.46-11.26,4.49,1.38,6.53,5.16,11.36,6.12-23.89-24.83-35.21-52.01-37.46-86.59-.8-12.23.62-23.72,4.66-35.17l4.6-13.02-6.29,7.48c1.29-5.96,4.39-11.42,9.19-15.11,12.32-9.48,29.97-4.11,42.79,1.9,2.65,1.24,24.3,12.6,23.26,16.27l-20.43-10.63c-11.36-5.91-22.69-9.68-35.55-5.25,5.48,1.21,10.03,1.16,14.98,3.81l-8.72,2.94c-6.56,2.21-13.17,4.19-18.25,9.63l13.73-3.57c25.42-6.61,55.54,10.87,75.99,24.47,12.46,8.28,34.67,24.33,42.15,37.3-37.13.54-65.35,26.9-82.43,57.34-6.35,11.31-14.5,28.9-5.7,41.02,2.93,4.03,7.48,6.08,12.4,5.34l5,.55c-4.37,5.35-4.35,3.93-10.77,2.21ZM466.25,480.4c5.33,6.43-4.97,16.99-11.48,20.71-16.47,9.41-31.89,11.92-31.89,11.92,1.53-1.19,7.81-1.94,17.23-8.74-18.7,7.62-38.39,9.05-38.39,9.05-2.27.2-50.53,58.33-50.53,58.33-5.64,6.49-64.9,82.9-112.52,79.86-.59,6.54,18.01,5.08,23.89,3.6,30.89-3.89,89.4-77.97,89.4-77.97,0,0,17.76-20.89,36.55-46.56-9.03,14.04-16.17,28.71-25.79,42.12-10.65,14.84-21.78,28.72-34.37,41.9-14.04,14.7-29.54,26.87-47.39,36.56-15.18,8.24-29.65,17.61-47.32,6.9-6.87-4.16-13.49-9.02-19.24-14.88-11.61-11.83-21.42-24.68-31.4-37.74-2.25-2.95-3.3-5-1.49-8.69,5.46-11.16,12.17-21.57,21.54-29.92,9.63-8.59,27.21-20.97,39.54-10.57-2.55,5-4.94,10.04-4.44,16.02,17.95-18.78,35.75-31.05,57.98-44.39-16.01,5.98-30.34,14.95-45.18,25.12,6.34-11.92,24.21-22.17,36.2-27.52,20.02-8.94,38.12-20.3,54.83-34.56,6.48-5.54,12.5-10.95,18.48-16.96,3.4-3.42,5.64-7.11,6.16-12.08.85-8.04,1.68-15.99,3.1-23.95,2.94-16.46,13.87-26.85,14.54-44.89,3.39.25,5.67.26,8.41-.52-3.39-1.32-5.64-1.92-8.7-3.76l10.33-.94c-2.82-1.59-5.84-2.48-8.86-3.33l.4-8.72c1.63-.31,3.18-.63,4.14-1.21,3.31-2.01.28-14.62-1.82-18.07l-5.53-2.33c4.1-2.95,10.2-2.51,14.35,1.34,7.09,6.57,10.26,16.3,10.51,26.11.29,11.61-5.02,17.32-1.41,29.25-3.04-.39-5.16-.82-8.43-.16l6.89,3.51c-4.47,1.54-8.55,2.88-11.09,7.13,7.37-3.39,14.85-4.93,22.99-4.34,6.84.5,13.41-2.03,21.41-2.36-3.06-1.59-6.34-2.02-10.05-2.29,7.11-2.59,14.58-4.62,22.39-4.59,7.75.03,13.81,6.22,12.66,13.96-1.23,8.34-14.6,9.52-16.01,12.52-.19.4,1.18,1.22,1.7,1.22,10.32-.1,14.71-6.09,18.43-1.13,3.12,4.15,3.74,11.1.05,15.41-3.92,4.57-10.02,6.74-12.54,9.7-.29.34.6,1.8,1.1,1.71,3.6-.64,7.78-2.6,11.36-4.1,2.62.97,3.18,4.42,3.45,6.82.62,5.54-1.57,9.66-6.28,12.42-1.81,1.07-6.51,4.8-6.61,7.1-.08,1.66,7.66-2.48,8.74-3.02ZM381.49,356.44c1.74.35,4.33,1.13,5.25,2.59,1.9,3.01,3.86,15.22-1.46,12.82-1.51-4.72-2.83-10.12-3.79-15.41ZM420.02,407.6c-1.5,1.18-4.14,2.11-6.16,1.87-2.01-9.33-1.09-18.3,2.19-26.94,2.71-.81,5.13-1.2,8.2-1.42-3.84,8.81-4.54,16.33-4.23,26.49ZM435.31,240.54c7.58.29,10.9,1.83,19.54,1.46l-1.85,6.39c2.81-2.64,4.8-5.42,8.18-6.75,5.15-2.03,10.37-1.52,15.79-1.94,14.02-1.09,27.27-4.8,40.75-8.45,3.05-.82,6.26-.92,8.97-2.43,7.18-3.98,14.57-6.54,22.69-7.33,2.36-1.52,4.85-3.49,7.19-4.7l7.46-3.88c-.65,2.13-1.08,5.12-2.63,6.83-5.99,6.6-6.99,5.55-10.76,8.31-6.34,4.64-13.33,7.67-17.18,12.82l-21.13,8.28c-1.52.6-3.46,2.3-4.66,3.45l-11.39,11.06c-8.14,7.9-9.31,6.62-21.18,9.32,4.15,2.48,8.88,2.13,13.92,2.5,5.02,14.15-.6,13.81,3.88,32.79l3.86,16.37c6.95,29.5,12.29,52.83,9.69,82.89l-3.28-5.36,3.2,23.07c.56,4.06-.11,8.54-2.37,11.79-2.89,4.16-7.42,5.71-12.13,6.95-6.8,1.8-10.33,5.91-16.81,8.1,3.51-8.87,2.39-19.05-6.07-25.27,2.13-6.09,1.4-12.25-2-17.81-5.85-9.55-20.49-9.55-29.51-6.96l-10.98,3.15c-.07-7.14,1.27-14.17,3.34-21.03,2.26,6.18,3.66,12.17,8.83,16.84-1.88-9.01-4.11-17.33-3.46-26.5.87-12.17,2.85-23.78,5.72-35.6,5.91-24.37,5.83-44.67,3.74-69.57-.04-.52-.11-1.91.25-2.14l2.07-1.3c-4.91-4.63-8.65-9.92-12.5-15.66l.81-9.72ZM346.68,208.8c2.75,2.82,5.45,5.91,8.61,8.3,4.94,3.74,16.97,9.17,23.14,10.9l36.96,10.32c6.63,1.85,7.93,1,13.94,1.72-1.99,13.13-4.03,9.01,3.01,19.87,4.95,7.63,4.26,3.96,4.95,14.95.86,13.68,1.71,27.12.1,40.78-.94,7.93-2.87,15.31-4.6,23.1-2.56,11.52-4.52,22.72-4.64,34.82-4.45-.95-8.78-.93-13.63.55-.79-10.11-8.09-23.88-18.23-28.25-8.24-3.56-17.28-.77-21.13,7.31.25,7.39,2.83,12.02,3.28,20.65l-7.21-1.53c-10.99-2.33-21.86-3.25-33.04-1.84-1.56.2-3.24.12-4.93-.18,4.81-4.5,8.98-8.32,11.19-14.34,1.94-5.27,2.71-11.07,2.23-16.81-.83-9.91-2.48-19.38-4.58-29.01-.81-3.72-.28-6.68.91-10.21l9.98-29.63c1.57-4.65,2.51-9.07,2.75-14.1.23-4.85-8.39-4.46-9.68-15.09l-1.6-13.18c-1.19-9.83-10.09-21.44-19.71-24.24.79-6.24,1.1-12.4,1.19-18.79.07-4.72,1.06-9.45.62-14.2-.82-8.75-2.73-17.21-5.57-25.4-.83-2.4-1.83-4.66-1.43-7.15,10.02-4.79,19.28-10.4,28.52-16.85l-.67,10.13c-.18,2.8-.73,5.68-.07,8.43,1.43,5.95-.41,11.71-4.24,16.42-7.62,9.37-2.52,20.56-3.7,31.72-.29,2.72-2.08,4.66-.9,7.66,1.9,4.83,4.44,9.33,8.17,13.15ZM579.63,173.11c-9.87,7.82-19.19,14.25-30.8,19.31-36.93,16.09-82.89,23.96-123.11,20.16-18.49-1.75-36.12-5.67-53.11-12.87-7.62-3.23-17.69-9.15-23.4-15.15-6.67-7-5.48-17.5.39-24.75,2.08,7.92,6.95,12.93,13.54,16.87,17.87,10.7,37.85,15.7,58.61,17.86,27.12,2.82,54.2,1.09,80.73-5.35,19.43-4.71,37.92-11.22,55.26-20.95,13.34-7.88,32.18-20.29,36.7-35.85,9.68,14.12-3.96,32.22-14.8,40.7Z"/>
  </g>
  <path class="cls-2" d="M314.4,287.41l3.56-16.32,10.2-.16c7.84-.13,13.92-3.79,19.25-9.87-2.65,10.66-6.33,20.32-10.69,30-8.56,19.01-.02,28.45-.18,50.58-.06,7.99-3.05,15.96-10.07,20.31-10.96,6.8-24.48,8.89-37.02,6.04-9.17-2.08-17.14-6.48-24.6-11.91-3.77-2.75-7.19-5.24-11.33-7.66l15.54,16.93c-6.91.88-24.22-10.1-29.67-13.84-8.03-5.51-15.33-11.61-22.28-18.48-10.47-10.37-17.5-22.98-22.6-36.68l-5.86-15.73c-3.54,1.51,5.31,17.03-5.09,19.49-2.95.7-6.48.72-9.26-.62-5.04-2.44-9.35-5.71-13.46-9.43s-6.73-8.32-8.93-13.39c-3.28-7.59-4.43-15.8-2.78-23.95,1.25-6.16,5.75-11.32,12.13-11.79,5.52-.41,10.3,2.11,14.4,5.49,8.8,7.26,7.85,13.82,10.77,14.71s12.7-11.23,3.68-23.71c-1.7-2.35-.23-5.68,1.24-7.88,3.99-5.99,4.72-13.21.94-19.29s-8.73-4.52-14.19-5.07c1.42-2.55,2.81-4.62,4.11-7.43.61-1.3-2.35-2.41-3.99-2.67,2.38-4.1,5.24-7.76,7.89-11.68l11.2-16.61c4.84-7.17,9.94-13.77,17.14-18.96-9.45,11.66-12.53,31.8-9.85,46.07,1.99,10.63,4.01,20.96,8.43,31.26,1.16-6-.38-11.23-.29-16.84.15-9.43.55-18.6,3.46-27.45,2.77-8.45,8.4-21.89,19.71-17.55l11.77,4.51c2.51.96,5.46-.28,5.94-3.05,1.88-10.67,2.6-17.34-7.1-24.67-3.81-2.88-7.67-5.01-13.04-5.06,18.48-11.03,43.55-14.19,65.15-6.55-4.82,3.82-9.62,8.02-13.65,13.22-3.47,4.47,1.88,13.01,4.54,16.95.37.54,2.27.65,2.81.29l7-4.57c3.24-2.11,7.76-3.15,11.41-1.68,6.93,2.78,7.8,18.11,7.69,24.54-.15,8.65.49,17.07-1.74,25.81-1.6-6.94-3.02-13.02-5.11-19.33l-4.4-13.24c-.66-1.99-3.59-6.85-6.02-6.85-.72,0-2.12.75-2.66,1.39-9.2,10.87-12.5,39.08-4.04,51.68,3.67-1.56,6.75-3.23,10.22-5.08,5.71-3.05,12.87-3.46,18.87-.78,7.85,3.5,12.4,11.23,12.57,19.88.23,11.28-6.46,21.22-16.33,26.47-6.64,3.53-14.01,4.62-21.05,2.29-5.18-1.72-8.05-6.24-7.54-11.98l-5.27,1.54c-1.9.56-4.44,1.37-6.5.26-1.38-.75-2.75-2.96-3.05-4.91-.82-5.36,1.44-9.47,6.39-11.85-6.97-1.99-9.39,11.38-10.17,15.83-2.6-3.33-1.32-6.81-1.21-11.16-5.17,3.83-1.09,11.33-11.34,12.5-17.95,2.05-18.37-12.36-28.62-13.27-5.41-.48-10.07,3.36-11.88,8.34l6.58-4.03c1.19-.73,4.43-1.08,5.57-.26,2.71,1.97,4.35,5,5.52,7.94l2.49,6.3-14.09-3.57c-6.31,4.84-8.86,13.99-3.89,21.37l5.48-13.03c3.84,8.99,9.81,14.77,18.94,16.27,2.21.36,4.04,1.85,5.38,3.68,5.75,7.82,11.06,15.05,21.29,17.53,6,1.46,12.32,1.33,18.24-.42l20.5-6.09c1.13-.34,2.57-1.73,2.86-3.07ZM255.47,234.22c6.87-8.6,4.82-27.16,1.03-37.07-2.09-5.46-5.17-10.21-8.94-14.5s-9.72-4.56-13.68-.35c-11.49,12.2-12.5,28.75-12.29,44.94-1.32,1.25-3.19,2.38-4.35,3.67-2.53,2.81-4.28,6.53-4.54,10.29,11.78-13.05,27.39-14.78,42.77-6.97ZM273.65,224.62c3.11-2.2,3.27-6.05.44-8.09-.86,2.68-1.05,5.36-.44,8.09ZM170.27,287.3l14.05-4.41c-2.64-2.9-5.24-5.72-7.09-9.06-1.73-3.13.27-6.14,1.99-8.65-.98-3.36-3.55-6.26-5.93-8.77-3.79-3.99-8.27-9.49-13.75-7.26-7.64,3.11-4.84,18.81,1.37,24.54.78-3.68.16-7,1.92-9.96.71-1.2,2.7-1.2,3.65-.79,4.81,2.09.14,7.22,6.97,15.61,2.47,3.03-2.87,5.13-3.18,8.74ZM276.48,332.75c-.21.32.62,1.84.84,1.65.15-.13.7-.45.85-.61l6.71-6.8c4.07-4.13,9.03-6.39,14.96-5.72,3.32.25,6.09-.81,8.36-3.22,6.04-6.39,8.87-14.76,9.16-23.49-18.98,5.01-34.28,12.66-53.5,4.55,1.15,8.06,5.59,14.93,12.14,19.26,2.34,1.55,5.33,2.43,7.79,3.53l-7.32,10.86ZM312.84,343.95c-3.38-10.11-14.74-15.03-24-11.57-5.31,1.98-8.21,7.02-7.16,12.45,11.83-9.69,18.8-7.91,31.16-.88Z"/>
  <path class="cls-2" d="M469,426.84c2.13-6.09,1.4-12.25-2-17.81-5.85-9.55-20.49-9.55-29.51-6.96l-10.98,3.15c-.07-7.14,1.27-14.17,3.34-21.03,2.26,6.18,3.66,12.17,8.83,16.84-1.88-9.01-4.11-17.33-3.46-26.5.87-12.17,2.85-23.78,5.72-35.6,5.91-24.37,5.83-44.67,3.74-69.57-.04-.52-.11-1.91.25-2.14l2.07-1.3c-4.91-4.63-8.65-9.92-12.5-15.66l.81-9.72c7.58.29,10.9,1.83,19.54,1.46l-1.85,6.39c2.81-2.64,4.8-5.42,8.18-6.75,5.15-2.03,10.37-1.52,15.79-1.94,14.02-1.09,27.27-4.8,40.75-8.45,3.05-.82,6.26-.92,8.97-2.43,7.18-3.98,14.57-6.54,22.69-7.33,2.36-1.52,4.85-3.49,7.19-4.7l7.46-3.88c-.65,2.13-1.08,5.12-2.63,6.83-5.99,6.6-6.99,5.55-10.76,8.31-6.34,4.64-13.33,7.67-17.18,12.82l-21.13,8.28c-1.52.6-3.46,2.3-4.66,3.45l-11.39,11.06c-8.14,7.9-9.31,6.62-21.18,9.32,4.15,2.48,8.88,2.13,13.92,2.5,5.02,14.15-.6,13.81,3.88,32.79l3.86,16.37c6.95,29.5,12.29,52.83,9.69,82.89l-3.28-5.36,3.2,23.07c.56,4.06-.11,8.54-2.37,11.79-2.89,4.16-7.42,5.71-12.13,6.95-6.8,1.8-10.33,5.91-16.81,8.1,3.51-8.87,2.39-19.05-6.07-25.27ZM488.77,262.07l7-5.48c5.25-4.11,10.5-7.55,16.14-11.25-5.07,1.21-10.14,2.17-14.21,4.96l-10.63,7.3c-4.34,2.98-9.88,1.92-15.05,4.32l16.75.15ZM456.01,285.46l-.45-15.29-4.21-3.12,3.71,31.2c.64-4.42,1.09-8.36.96-12.79ZM497.11,432.17c2.21-3.95,2.22-8.6.5-12.84-3.08,10.72-2.44,10.84-11.73,16.84,4.21,1.39,9.04-.09,11.23-4Z"/>
  <path class="cls-2" d="M163.19,627.61c2.93,4.03,7.48,6.08,12.4,5.34l5,.55c-4.37,5.35-4.35,3.93-10.77,2.21-5.67-1.51-10.66-6.3-12.81-12.54-4.4-12.76.29-24.78,5.92-36.27,6.64-13.55,15.68-25.45,26.02-36.44,5.74-6.1,12.07-10.7,18.76-15.57,6.74-4.9,13.74-8.18,21.98-11.24-12.3-1.43-26.25,4.76-35.95,12.48-22.39,17.81-37.33,41.51-45.79,68.9-1.53-1.54-2.85-3.31-4.17-5.11-2.74-3.74-5.77-7.04-8.46-11.26,0,0-2.79-3.09-2.79-6.19-23.89-24.83-21.05-39.69-23.3-74.27-.8-12.23.62-23.72,4.66-35.17l4.6-13.02-6.29,7.48c1.29-5.96,4.39-11.42,9.19-15.11,12.32-9.48,29.97-4.11,42.79,1.9,2.65,1.24,24.3,12.6,23.26,16.27l-20.43-10.63c-11.36-5.91-22.69-9.68-35.55-5.25,5.48,1.21,10.03,1.16,14.98,3.81l-8.72,2.94c-6.56,2.21-13.17,4.19-18.25,9.63l13.73-3.57c25.42-6.61,55.54,10.87,75.99,24.47,12.46,8.28,34.67,24.33,42.15,37.3-37.13.54-65.35,26.9-82.44,57.34-6.35,11.31-14.5,28.9-5.7,41.02ZM180.03,526.55c14.82-9.94,22.75-11.19,40.12-14.49-17.64-6.19-35.82,2.51-48.54,13.92-4.96,4.45-9.73,8.79-13.16,15l21.58-14.44ZM188.29,530.21c.11-.22-.4-.43-1.03-.63-8.49,5.28-17.2,10.7-22.79,19.81l23.82-19.19Z"/>
  <path class="cls-2" d="M372.61,199.72c-7.62-3.23-17.69-9.15-23.4-15.15-6.67-7-5.48-17.5.39-24.75,2.08,7.92,6.95,12.93,13.54,16.87,17.87,10.7,37.85,15.7,58.61,17.86,27.12,2.82,54.2,1.09,80.73-5.35,19.43-4.71,37.92-11.22,55.26-20.95,13.34-7.88,32.18-20.29,36.7-35.85,9.68,14.12-3.96,32.22-14.8,40.7-9.87,7.82-19.19,14.25-30.8,19.31-36.93,16.09-82.89,23.96-123.11,20.16-18.49-1.75-36.12-5.67-53.11-12.87ZM592.75,155.17c-.73-1.23-2.61-2.02-3.73-1.68l-2.55,8.59c2.8-1.94,4.5-4.23,6.28-6.91Z"/>
  <path class="cls-2" d="M292.62,417.31c-.33,3.85-.9,7.08-1.65,10.24l-1.24-5.1-3.51,15.45c-2.64-6.53-3.99-12.32-7.11-18.37l2.99,22.87c-7.18.46-13.54.28-20.74-.04-3.7-5.36-3.36-15.61-6.21-22.16l.61,21.51c-15.3.49-31.1-11.27-40.93-22.07,2.72-5.94,4.3-11.75,4.5-18.38l1.47-48.48c6.37,5.72,10.53,12.3,14.28,19.48,3.19,6.1,5.31,12.32,7.89,18.85l7.18,18.13c.15.39,1.12.97,1.4.87s.7-.8.61-1.23l-3.58-16.7-3.99-19.88c5.35,2.37,12.24,10.34,15.56,14.66l9.28,12.06-2.88-18.46,29.21.18-3.14,36.59Z"/>
  <path class="cls-2" d="M321.28,132.06c-1.43.84-2.77,1.07-4.14.02-9.54-7.29-20.52-11.5-32.58-12.72-15.77-1.96-31.07.67-45.3,7.45-6.41,2.65-11.78,6-18.12,9.53,4.61-8.13,9.47-15.43,15.62-22.16,14.99-16.4,35.7-25.57,57.79-26.56,9.75-.44,19.01-1,28.68.99,10.31,2.12,19.91,7.03,27.72,14.05,2.85,2.56,1.85,7.63-.47,10.28-2.67,3.05-5.84,5.41-9.36,7.47l-19.85,11.65Z"/>
  <path class="cls-2" d="M230.19,91.53c-1.96-3.43,2.75-7.41-1.06-9.72-2.97,3.83-2.42,9.2-6.15,12.22l1.36-8.49c-3.63.95-3.9,4.2-4.1,7.27-.13,2.07,1.27,5.07,3.85,4.7,1.77-.25,2.86-3.27,2.89-4.71.74.98,1.48,1.97,2.01,2.57s2.71-.53,3.05-1.3l1.61-3.55c1.63,1.46,2.94,2.38,4.34,1.86,1.78-.66,2.73-2.43,3.49-3.99,1.06,1.11,3.69,3.05,5.08,1.21l2.73-3.6c1.29,5.13-2.88,4.39-4.01,11.08l2.19,1.34c-16.44,11.09-28.15,21.28-36.3,40.28-3.55.47-14.48-17.43-16.3-20.55-3.03-5.21-5.93-10.16-8.27-15.64-2.16-5.07-2.1-10.3-.11-15.33,2.16-5.45,3.5-9.73,9.78-11.21,6.09-1.43,11.85-2.35,18.05-3.38,12.12-2.02,24.09-3.4,36.4-3.68,11.41-.26,16.39,5.99,22.17,14.25.33.47.74,1.55.76,2.07s-1.12,1.28-1.65,1.43c-8.68,2.39-15.9,6.31-24.03,11.43,2.65-4.04,2.72-8.9,7.28-11.67,1.07,1.57,2.75,3.48,4.69,2.95,2.09-.57,3.63-2.38,3.9-4.63-1.56-.55-2.69,2.85-5.2,1.39-2.45-1.43,2.74-5.07,1.04-6.53-1.88-1.6-4.17.52-4.53,2.35-.39,1.99-1.17,3.57-2.92,4.14l.42-4.24c.05-.51-.7-1.66-1.15-1.81-1.89-.62-2.08,2.55-5.41,6.91-.35.45-2.28.25-2.25-.38.16-4.14,5.1-4.69,5.86-7.38.16-.58-1.59-1.19-2.24-.96-7.75,2.77-5.46,7.96-8.69,10.6-.5.41-2.16.43-2.48-.1-1.15-1.94,3.19-6.62.33-7.26s-3.81,3.1-3.79,5.23-.51,3.62-2.66,4.82ZM258.58,74.96c-.49.61-.31,2.22.19,2.88.42.55,2.13.29,2.47-.48.29-.65.24-1.78-.11-2.39-.29-.5-2.19-.47-2.55-.01ZM236.42,80.11c1-.3,1.78-.84,2.01-1.39.19-.43-.2-1.9-.57-2.19-.75-.58-2.57.27-2.81,1.25-.18.72.65,2.54,1.37,2.32ZM209.38,101.98c.13-6.43.34-11.66,1.85-16.97.44,3.79.07,6.74,1.34,10.24,2.93-1.68,2.55-4.31,2.27-6.92-.21-1.91-.28-8.78-3.03-8.17-4.56,1.01-4.61,20.12-4.75,24.55-2.99,2.06-4.42,6.31-1.61,9.21,5.14-12.36,15.01-6.65,14.92-16.26l-11,4.32Z"/>
  <path class="cls-2" d="M260.2,472.33l-3.21-4.7-11.74-15.7,20.15,1.03c16.29.82,32.09-4.28,44.47-14.82,8.47-8.02,12.6-18.74,10.91-30.49,9.76,11,17.81,23.32,23.81,37.08-18.49,8.22-36.46,15.57-55.06,22.49l-24.04,7c-1.94,0-4.12-.19-5.29-1.9ZM304.38,458.32c10-3.05,16.73-11.29,19.9-20.72,2.05-6.13,3.4-12.54,1.19-19.02-1.61,6.78-3.19,12.81-5.89,18.9-3.89,7.72-8.97,14.07-15.2,20.84Z"/>
  <path class="cls-2" d="M269.15,510.07c.36-5.2-1.28-9.7-3.74-13.81-11.87-19.83-33.88-50.02-51.6-64.54-8.34-6.83-17.03-12.7-26.1-18.58-6.19-4.01-19.74,6.65-26.33,10.23,20.14,11.31,37.29,25.69,51.45,43.64,8.47,10.74,16.43,21.43,23.62,33.34-4.2-2.58-5.98-6.89-8.78-10.52-13.94-18.03-35.85-47.72-56.29-58.23l-14.19-7.29c6.46-5.33,12.82-9.57,20-12.48,4.15-1.68,8.42-1.79,12.36.08,6.34,3.01,11.87,6.56,17.37,10.98,11.7,9.42,22.23,19.69,31.61,31.52,9.46,11.94,17.87,24.13,26.47,36.67,4.79,6.99,9.14,18.28,3.37,25.98-3.43,4.58-10.06,6.25-15.06,2.55-7.2-5.33-12.41-14.42-11.82-23.64.45-7.12,8.83-10.81,14.7-8.83l-7.5,3.09c-4.01,1.65-6.15,5.9-5.18,10.43,1.45,6.73,5.3,13.82,11.54,17.38,5.64,3.21,13.67-1.5,14.11-7.96Z"/>
  <path class="cls-2" d="M378.1,382.94c-.83,12.39-1.78,17.47-6.86,29.01-8.79-13.47-16.24-25.32-29.72-34.24,11-2.02,26.11.81,36.58,5.23Z"/>
  <path class="cls-2" d="M311.8,407.62c1.04,1.42,2.78,3.78,2.47,5.5-1.72,9.46-7.67,17.34-16.62,21.48l2.02-50.3c1.61.59,2.4.99,3.57,1.65-.7,7.85,3.75,15.06,8.57,21.67Z"/>
  <path class="cls-2" d="M305.77,282.9c-13.53,4.54-27.07,9.17-37.3-2.33l8.56.03c13.13.05,25.71-4.26,35.77-12.83,1.5,6.63-.3,12.87-7.03,15.12Z"/>
  <path class="cls-2" d="M305.66,205.16c-.95-9.4-1.84-17.73-9.68-24.14-.29-2.6,1.58-6.66,4.47-7.41,7.87-2.03,12.04,24.7,11.57,29.77l-6.36,1.77Z"/>
  <path class="cls-2" d="M354.72,445.44c1.35,6.17,5.57,9.44,3.66,11.59-1.68-2.94-3.07-5.64-4.49-8.89-7.86-18.1-22.51-43.47-38.96-54.85-2.03-2.27-5.43-3.26-5.79-7.08,19.67,10.6,33.25,34.74,43.45,54.14,2.13-3.61,4.62-6.6,8.56-6.35-4.19,2.46-7.54,6.42-6.44,11.44Z"/>
  <path class="cls-2" d="M420.02,407.6c-1.5,1.18-4.14,2.11-6.16,1.87-2.01-9.33-1.09-18.3,2.19-26.94,2.71-.81,5.13-1.2,8.2-1.42-3.84,8.81-4.54,16.33-4.23,26.49Z"/>
  <path class="cls-2" d="M208.53,402.86c-.31,4.39-.49,7.22-1.44,11.28l-16.18-8.14,20.89-6.62c.23,1.59.29,3.1.28,4.71l-3.55-1.23Z"/>
  <path class="cls-2" d="M365.64,419.75c-9.31-15.08-19.02-28.42-33.81-38.04-3.61-2.35-9.03-4.38-9.89-5.32-2.16-2.37,17.16,2.03,33.77,25.22,3.8,5.31,8.27,12.28,11.2,17.44.12.21-.3,1.54-.43,1.43l-.84-.74Z"/>
  <path class="cls-2" d="M386.73,359.03c1.9,3.01,3.86,15.22-1.46,12.82-1.51-4.72-2.83-10.12-3.79-15.41,1.74.35,4.33,1.13,5.25,2.59Z"/>
  <path class="cls-2" d="M257.91,502.92c.51,2.14.15,4.55-1.72,5.69-1.38.84-3.5.56-4.69-.34-1.25-.94-1.93-2.72-1.93-4.44,0-2.56,1.47-4.33,3.75-4.65,1.99-.28,3.96,1.14,4.59,3.75Z"/>
  <path class="cls-2" d="M299.42,288.84c.83,5.06-12.96,5.91-15.99,6.1-1.65.1-3.23-1.34-3.49-3.04l19.48-3.06Z"/>
  <path class="cls-2" d="M441.06,80.29l10.31-5.95c1.33-.77,2.82-1.29,4.21-1.42-3.46,4.64-8.34,7.96-14.52,7.37Z"/>
  <path class="cls-2" d="M302.03,206.61c-2.81.05-3.6-2.49-4-4.31-.5-2.24.01-4.32,1.89-6.22,1.67,3.24,2.5,6.57,2.11,10.53Z"/>
  <path class="cls-2" d="M467.55,67.27c-3.77,1.06-6.97,1.29-10.64,1.26.82-2.25,9.95-2.72,10.64-1.26Z"/>
  <path class="cls-2" d="M492.42,69.43c.98.63-7.37,8.97-8.02,5.69,2.62-2.16,5-3.97,8.02-5.69Z"/>
  <path class="cls-2" d="M299.43,193.23c-2.14.04-4.05-.38-5.8-1.11.12-.56.4-1.32.65-1.67,1.02-1.42,4.26,1.1,5.15,2.78Z"/>
  <path d="M497.17,126.68l-2.75-5.44c5.74-4.41,6.65-2.84,9.31-10.93l2.84,4.57c9.78,3.46,12.83,11.07,22.89,7.42,1.1-.26,3.48-.44,4.74-.61.65-2.1,1.53-3.84,3.3-4.96l10.68-6.74c4.23-2.67,8.4-4.03,13.6-3.36,1.53-.58,3.63-2.41,4.96-3.6,4.73-4.21,16.13-13.62,9.93-19.94l7.48-2.5c1.31,3.71-.15,8.06-2.83,11.05l.17-4.96c-1.09,2.63-1.87,5.09-3.14,7.71-3.76,7.8-13.78,12.22-12.72,13.13l1.85,1.59c-7.41,3.78-2.35,9.69-5.07,12.84-5.91,6.85-17.45,5.98-25.88,4.88-1.18-.15-1.54-2.55-1.94-4.31l-12.27,7.51c-5.04,3.09-11.52,3.63-17.22,2.84-3.77-.52-6.22-2.78-7.94-6.19ZM555.32,111.49c-2.02.63-9.4,4.71-11.45,6.56,4.63-.58,8.35-2.68,11.45-6.56ZM503.94,125.52l-2.43-7.43-.94,4.78c.81,1.44,1.21,2.28,3.37,2.65ZM511.19,127.3l-1.35-2.06c-.19-.29.91-1.17.81-1.51-.26-.83-2.13-1.91-2.89-1.82.5,2.49,1.02,3.35-.22,5.82l3.65-.44Z"/>
  <path d="M499.34,142.66l-10.47,2.49c-2.73.65-5.22,1.91-7.97,2.85l-38.67,13.19c-4.65,1.59-7.03-2.64-10.43-5.95-1.62-1.58-6.16,2.15-6.69.85-1.15-2.82,2.73-.53,3.94-6.5.56-2.78.71-4.82-.68-7.39-.4-.74.18-2.95,1.02-2.79,2.73.49,5.09.67,7.48-.21l21.95-8.07c1.11,5.21,4.07,7.8,8.99,7.83,4.62.03-.51,2.84,9.18,1.75-2.67,3.85-7.6,5.66-10.25,9.21,4.11.41,6.77-.93,10.02-1.97l7.77-2.49,12.51-4.31c.27-.09,1.1-.26,1.36-.31s.43.59.93,1.83ZM457.24,134.97c-5.56,1.04-10.49,3.03-15.65,4.68l-6.24,1.99c-.91,5.06,21.51-4.04,21.89-6.68ZM445.72,154.7l15.61-7.18c.25-.12.82-1.18.9-1.33.2-.35-1.65.14-1.45.05l-12.17,5.41c-2.13.95-4,.9-6.12.93l.51,2.28c.12.52,1.76.28,2.72-.16Z"/>
  <path d="M402.3,146.86c4.38,1.96,8.75,2.07,11.76,2.96.18.05.05.95-.14.99l-3.14.66c1.11,2.36,2.05,4.57,2.52,7.15-2.93,1.49-3.2-6-9.54-8.38-15.46-5.82-22.98,6.15-35.72-6.06.33-4.1,4.03-6.64,7.05-8.87l9.79-7.22c5.44-4.01,8.43,2.92,15.18-4.85l1.52,2.83c.32.6,1.62.24,3.13.27l-2,2.43.94,1.22c1.08,1.4-3.02,1.86-3.49,4.59-.69,3.99-1.09,7.02-1.5,11.14l4.42-.95c-.09-1-.15-1.9.22-1.93,1.02-.08,3.85.55,3.62,2.39l-4.62,1.64Z"/>
  <path d="M471.96,114.17c-2.4-2.27-2.7-6.84-4.01-9.67-.76-1.63-1.31-3.74-.59-4.95,4.5.1,8.13-.79,10.2-5.03,3.21,4.01,7.64,4.32,11.47,2.05l-1.64-.67c1.95-2.8,4.49-2.21,7.38-1.52s5.87.62,9.35.82c1.35,3.43.4,8.63-3.14,10.68l-14.3,8.25c-4.24,2.45-10.29,4.22-14.7.05ZM483.45,110.12l17.82-9.8c-6.53.59-11.78,4.61-16.9,7.97-.38.26-1.07,1.75-.92,1.83Z"/>
  <path d="M401.08,99.3c.12-2.47,3.12-4.46,5.02-6.76-8.87-3.9-9.26,1.41-16.83,5.38,2.16-5.45,6.76-8.21,11.68-10.69,8.62,4.19,12.69-4,18.65-1.6l14.57,5.86-5.58,6.33c-2.62,2.97-5.52,5.36-9.68,6.24s-17.53,2.51-17.84-4.76ZM410.82,95.78c2.26-2.08,4.43-4.01,5.94-6.28-1.44-.17-12.79,9.11-9.18,9.25l3.24-2.97ZM423.24,94.99c-3.97,1.01-7.35,2.39-10.76,4.11,4.32.51,8.18-.8,10.76-4.11Z"/>
  <path d="M554.09,100.21c-5.18,2.76-10.81-2.66-17.24,1.77l2.88-4.78c1.33-2.21,2.14-5.45,3.01-7.85,3.29-3.02,6.25-5.94,9.13-9.42.76-.92,2.44-1.49,3.29-.76,5.38,4.59,11.09,6.62,18.68,7.13l-7.13,5.26c-4.12,3.04-8.03,6.2-12.63,8.65ZM554.11,94.89c3.18-2.1,5.44-4.57,7.78-7.26-3.81.59-6.78,3.66-7.78,7.26ZM546.2,94.65c3.59-.93,4.41-3.96,4.42-6.65-2.01,1.97-3.52,4.25-4.42,6.65Z"/>
  <path d="M532.29,89.8c3.85,2.94-6.47,9.64-14.15,9.29-3.52-.16-5.73-1.99-7.65-4.44-1.74-2.22-2.12-3.97-1.59-6.94.43-2.43.52-6.73,3.63-7.38,3.98,1.03,7.98,2.1,12.21,2.85,2.7.48,2.66,2.89,7.55,6.62Z"/>
  <path d="M439.33,122.87c-3.04,4.33-7.58,8.03-12.97,8.6-3.96.42-8.36-.3-10.5-3.84-1.4-2.32-1.04-6.01.11-8.48l4.21-9.03c.2-.43,1.31-1.22,1.72-1s.87,1.07.88,1.58l.05,3.38c3.05.95,6.44,1.33,8.86,3.12l7.65,5.67Z"/>
  <path d="M455.97,107.78c-.19,2.01-2.72,4.16-4.09,5.59-6.07,6.31-15.37,4.57-16.08,1.64-1.26-5.17,1.05-9.27,4.69-12.95l-12.83,1.85c.76-1.31,1.18-1.73,1.91-2.41l-.53-1.51c-.16-.45,3.17-5.87,6.54-3.26l-2.15,3.57,5.44-.18c.66-.02,1.8,1.15,1.8,1.59l4.98-3.04.14,4.41,5.05.02c2.25.01,5.43,1.58,5.15,4.67Z"/>
  <path d="M360.47,151.52c-1.77-1.18-2.93-3.35-3.1-5.08-.49-5.15,4.41-6.21,5.22-10.55-3.08-2.09-3.85-4.8-2.6-7.94l2.97-7.46c.12-.31.62-1.2.84-1.03l1.28.96c3.11-3.61,6.94-7.14,12.32-7.25-5.27,4.21-8.79,8.67-11.73,14.28-4,7.62,2.31,5.53.52,11.54-1.2,4-.82,7.93.2,12.13-1.29,1.31-4.29,1.47-5.91.39Z"/>
  <path d="M453.67,89.41c1.6,1.23,1.38,4.25.26,5.99-.82,1.28-2.76,3.47-4.65,3.21l-9.56-1.31,1.08-12.95c6.4,2.57,6.94,8.41,12.87,5.07Z"/>
  <path d="M379.82,110.21c-5.14.46-3.63,3.78-13.64.88,9.77-6.39,13.35-1.98,24.82-8.47,2.24-1.27,4.5-2.28,6.87-3.15.35,2.77-1.21,3.61-2.75,4.69-4.67,3.26-9.48,5.53-15.29,6.06Z"/>
  <path d="M387.26,124.85c-6.35.74-10.57-8.22-7.77-10.21,2.2-1.57,11.29-.25,11.62,4.57.15,2.28-.9,5.29-3.85,5.64Z"/>
  <path d="M505.33,139.17l22.03-8.64c1.36-.54,2.51-1.16,4.11-1.2-3.14,5.52-20.5,12.5-26.13,9.84Z"/>
  <path d="M471.53,129.46c-1.53,2.55-7.92,2.22-8.67-1.12-.38-1.67.31-3.36,1.8-4.35,1.89-1.26,4.81-2.46,6.8-.53,1.05,1.02,1.03,4.4.07,6Z"/>
  <path d="M491.63,138.78c-4.45,2.23-8.48,3.75-13.38,5.4,2.8-3.8,5.45-6.44,8.6-9.46,1.46-.5,2.87-.65,4.12-.18,1.09.41,2.37,3.39.66,4.24Z"/>
  <path d="M406.55,116.62c-.6.76-7.74,4.63-9.5,1.45-.94-1.69.58-4.06,1.91-4.95,1.75-1.16,3.52-.88,5.59.17.92.47,2.88,2.22,2,3.33Z"/>
  <path d="M501.61,80.62l-5.77,4.35c-1.23-.44-2.98-2.1-3.26-3.7-.21-1.16.81-2.75,1.57-3.19.81-.47,2.88-.88,3.6-.34l3.85,2.88Z"/>
  <path d="M513.07,113.16c-1.3-.9-2.96-1.96-3.38-3.16-.58-1.63,1.79-3.83,3.28-4.24,1.93-.53,4.15,1.93,3.21,3.77-.64,1.26-1.74,2.3-3.11,3.63Z"/>
  <path d="M479.26,87.47l-4.82,2.55c-.67-1.6.68-5.35,2.05-6.33.8-.58,3.25-.6,3.84.1.85,1.03-.02,3.12-1.07,3.68Z"/>
  <path d="M421.9,147.77c-2.58.73-5.48-.32-7.16-2.1,2.88-1.9,6.37-2.67,8.4-.27.37.44-.58,2.18-1.24,2.37Z"/>
  <path d="M522.62,139.14c-2.12,4.25-5.65,5.02-9.51,2.98l8.75-3.69c.19.18.85.8.76.71Z"/>
  <path d="M460.24,117.13c1.5.31.39,5.13-1.11,5.57-1.04.31-2.79-.13-3.54-.74l4.65-4.83Z"/>
  <polygon points="224.98 615.62 213.48 619.36 217.67 606.95 210.69 595.52 222.81 596.28 230.17 585.7 233.45 598.46 244.76 603.2 234.93 610.77 234.7 624.26 224.98 615.62"/>
  <polygon points="253.55 617.28 244.69 616.98 250.12 609.43 247.56 599.99 255.87 603.53 263.1 597.72 262.79 607.03 270.22 613.48 261.62 616.46 258.65 625.68 253.55 617.28"/>
  <path d="M307.21,590.66c-1.95-2.71-3.13-4.77-4.84-7.74l-8.91-.7,5.16-7.33-2.53-9.2,8.22,3.19,7.2-5-.23,8.98,7.23,6.04-8.29,2.93-3,8.84Z"/>
  <polygon points="320.71 555.02 316 559.13 315.32 552.72 310.12 549.23 315.46 546.6 316.91 540.26 320.78 545.04 326.97 544.71 324.2 550.1 326.44 556.01 320.71 555.02"/>
  <polygon points="341.99 560.74 337.49 564.89 336.61 558.52 331.23 554.83 336.9 552.81 338.35 546.45 342.36 551.11 348.5 550.71 345.46 555.82 348.01 562.07 341.99 560.74"/>
  <polygon points="367.54 522.58 363.03 526.38 362.49 520.54 356.94 516.77 362.8 514.13 363.97 508.02 368.07 512.79 374.03 512.42 371.34 517.66 373.59 523.76 367.54 522.58"/>
  <path d="M451.49,453.24c-3.89,7.86-7.49,8.07-16.32,7.1,4.34-2.01,8.24-3.5,11.44-6.46,2.91-2.68,3.19-6.45,1.66-10.12,4.08,1.6,5.11,5.66,3.22,9.48Z"/>
  <path d="M455.52,495.95c-4.52,6.65-12.53,6.48-20.12,3.67,8.35-1.89,16.2-.15,20.51-10.7.62,2.09.93,5.09-.39,7.03Z"/>
  <path d="M426.92,438.12c6.76-4.9,11.08-5.31,13.48-14.84,2.92,4.29,1.01,10.44-3.47,12.65-2.97,1.46-6.3,2.04-10.01,2.19Z"/>
  <path d="M440.15,481.16c6.8-3.82,12.47-1.15,15.15-11.44,2.35,4.38-.15,9.29-4.57,11.15-3.32,1.4-6.83,1.71-10.58.29Z"/>
  <path d="M255.47,234.22c-15.38-7.81-30.98-6.08-42.77,6.97.26-3.76,2.01-7.48,4.54-10.29,1.16-1.29,3.03-2.41,4.35-3.67-.21-16.18.8-32.74,12.29-44.94,3.96-4.21,10.01-3.83,13.68.35s6.85,9.04,8.94,14.5c3.79,9.91,5.84,28.47-1.03,37.07ZM244.05,225.24l10.02,3.4c3.72-12.45,1.51-25.43-5.61-36-2.37-3.52-6.73-4.7-10.69-3.81-3.25.73-5.39,3.13-6.1,6.33,5.02.43,8.12,3.3,10.14,7.51,3.41,7.11,3.68,14.4,2.24,22.57ZM231.49,207.02c-1.27-.27-2.97-.26-3.76.25-1.71,1.1-2.02,4.52-1.1,6.7l4.86-6.96ZM240.87,221.65c.52-3.25-.29-6.04-3.23-7.41l-1.44,10.33c2.08,1.14,4.28-.5,4.66-2.92Z"/>
  <path d="M276.48,332.75l7.32-10.86c-2.46-1.1-5.45-1.98-7.79-3.53-6.55-4.33-10.99-11.2-12.14-19.26,19.22,8.11,34.52.46,53.5-4.55-.29,8.73-3.12,17.11-9.16,23.49-2.27,2.4-5.04,3.47-8.36,3.22-5.93-.66-10.89,1.59-14.96,5.72l-6.71,6.8c-.15.16-.7.48-.85.61-.22.18-1.05-1.33-.84-1.65Z"/>
  <path d="M170.27,287.3c.31-3.61,5.65-5.71,3.18-8.74-6.83-8.39-2.17-13.52-6.97-15.61-.95-.41-2.94-.41-3.65.79-1.76,2.96-1.14,6.28-1.92,9.96-6.22-5.73-9.01-21.44-1.37-24.54,5.48-2.23,9.96,3.27,13.75,7.26,2.38,2.51,4.95,5.41,5.93,8.77-1.72,2.5-3.72,5.52-1.99,8.65,1.85,3.34,4.44,6.16,7.09,9.06l-14.05,4.41Z"/>
  <path d="M312.84,343.95c-12.36-7.03-19.33-8.81-31.16.88-1.05-5.43,1.85-10.47,7.16-12.45,9.26-3.46,20.62,1.46,24,11.57Z"/>
  <path d="M273.65,224.62c-.62-2.73-.43-5.41.44-8.09,2.84,2.05,2.68,5.89-.44,8.09Z"/>
  <path d="M488.77,262.07l-16.75-.15c5.17-2.4,10.71-1.33,15.05-4.32l10.63-7.3c4.07-2.79,9.14-3.75,14.21-4.96-5.64,3.69-10.89,7.14-16.14,11.25l-7,5.48Z"/>
  <path d="M456.01,285.46c.13,4.43-.31,8.37-.96,12.79l-3.71-31.2,4.21,3.12.45,15.29Z"/>
  <path d="M497.11,432.17c-2.19,3.91-7.02,5.4-11.23,4,9.3-6,8.65-6.12,11.73-16.84,1.71,4.24,1.71,8.89-.5,12.84Z"/>
  <path d="M180.03,526.55l-21.58,14.44c3.43-6.21,8.2-10.55,13.16-15,12.71-11.41,30.9-20.12,48.54-13.92-17.36,3.29-25.3,4.55-40.12,14.49Z"/>
  <path d="M188.29,530.21l-23.82,19.19c5.59-9.11,14.3-14.54,22.79-19.81.63.19,1.14.41,1.03.63Z"/>
  <path d="M592.75,155.17c-1.78,2.69-3.48,4.97-6.28,6.91l2.55-8.59c1.12-.34,3,.45,3.73,1.68Z"/>
  <path d="M209.38,101.98l11-4.32c.08,9.61-9.78,3.9-14.92,16.26-2.81-2.9-1.38-7.15,1.61-9.21.14-4.43.18-23.54,4.75-24.55,2.76-.61,2.83,6.26,3.03,8.17.28,2.6.66,5.24-2.27,6.92-1.27-3.49-.91-6.44-1.34-10.24-1.51,5.31-1.72,10.54-1.85,16.97Z"/>
  <path d="M236.42,80.11c-.73.22-1.56-1.6-1.37-2.32.25-.99,2.06-1.84,2.81-1.25.37.29.76,1.75.57,2.19-.24.54-1.02,1.08-2.01,1.39Z"/>
  <path d="M258.58,74.96c.37-.45,2.26-.49,2.55.01.35.6.4,1.74.11,2.39-.35.77-2.05,1.03-2.47.48-.5-.66-.69-2.28-.19-2.88Z"/>
  <path d="M304.38,458.32c6.23-6.77,11.31-13.12,15.2-20.84,2.69-6.08,4.27-12.12,5.89-18.9,2.21,6.48.86,12.89-1.19,19.02-3.16,9.43-9.89,17.68-19.9,20.72Z"/>
  <path class="cls-2" d="M555.32,111.49c-3.09,3.88-6.82,5.98-11.45,6.56,2.04-1.85,9.42-5.93,11.45-6.56Z"/>
  <path class="cls-2" d="M511.19,127.3l-3.65.44c1.24-2.47.72-3.34.22-5.82.76-.09,2.63.99,2.89,1.82.11.34-1,1.21-.81,1.51l1.35,2.06Z"/>
  <path class="cls-2" d="M503.94,125.52c-2.16-.38-2.56-1.22-3.37-2.65l.94-4.78,2.43,7.43Z"/>
  <path class="cls-2" d="M457.24,134.97c-.38,2.64-22.8,11.74-21.89,6.68l6.24-1.99c5.17-1.65,10.09-3.65,15.65-4.68Z"/>
  <path class="cls-2" d="M445.72,154.7c-.96.44-2.6.68-2.72.16l-.51-2.28c2.12-.03,3.99.01,6.12-.93l12.17-5.41c-.2.09,1.65-.4,1.45-.05-.09.15-.65,1.22-.9,1.33l-15.61,7.18Z"/>
  <path class="cls-2" d="M483.45,110.12c-.16-.08.54-1.57.92-1.83,5.13-3.36,10.37-7.38,16.9-7.97l-17.82,9.8Z"/>
  <path class="cls-2" d="M410.82,95.78l-3.24,2.97c-3.6-.14,7.75-9.42,9.18-9.25-1.52,2.27-3.68,4.21-5.94,6.28Z"/>
  <path class="cls-2" d="M423.24,94.99c-2.58,3.32-6.44,4.62-10.76,4.11,3.42-1.72,6.79-3.1,10.76-4.11Z"/>
  <path class="cls-2" d="M554.11,94.89c1-3.6,3.96-6.67,7.78-7.26-2.34,2.69-4.59,5.16-7.78,7.26Z"/>
  <path class="cls-2" d="M546.2,94.65c.9-2.4,2.41-4.68,4.42-6.65-.01,2.69-.83,5.71-4.42,6.65Z"/>
  <path class="cls-2" d="M244.05,225.24c1.43-8.17,1.16-15.46-2.24-22.57-2.02-4.21-5.12-7.07-10.14-7.51.72-3.2,2.85-5.61,6.1-6.33,3.96-.89,8.32.3,10.69,3.81,7.11,10.57,9.33,23.55,5.61,36l-10.02-3.4Z"/>
  <path class="cls-2" d="M240.87,221.65c-.38,2.42-2.59,4.06-4.66,2.92l1.44-10.33c2.93,1.37,3.74,4.16,3.23,7.41Z"/>
  <path class="cls-2" d="M231.49,207.02l-4.86,6.96c-.92-2.18-.61-5.6,1.1-6.7.79-.51,2.49-.52,3.76-.25Z"/>
  <polygon points="283.64 561.59 278.93 565.7 278.25 559.28 273.05 555.8 278.39 553.16 279.84 546.82 283.71 551.6 289.9 551.28 287.13 556.67 289.37 562.58 283.64 561.59"/>
  <path class="cls-1" d="M123.99,79.58c-.95,0-1.87-.28-2.66-.79-1.01-.66-1.75-1.65-2.18-2.96-.83-2.51-.67-5.21.46-7.81,1.15-2.64,2.79-4.1,4.27-4.91-.03-.79-.14-1.85-.39-3.24,0-.04-3.54-22.59-3.54-22.59-.38-2.61-.31-5.15.2-7.61.49-2.39,1.47-4.86,2.89-7.37,1.29-2.38,2.83-4.42,4.59-6.06,1.9-1.77,4.19-3.12,6.83-3.99,1.26-.42,2.45-.7,3.56-.84,1.02-.13,2.13-.2,3.32-.19h.13c1.2.01,4.87.04,6,3.44.81,2.45-.46,4.67-.87,5.39-.65,1.14-1.49,2.23-2.5,3.23-1.25,1.24-2.4,2.02-3.63,2.42-.73.24-1.52.33-3.04.36-.44,0-.87.08-1.34.24-.34.11-.53.21-.63.27-.14.28-.23.66-.27,1.14-.06.71-.03,2.11.39,4.75l4.03,25.31c.05.35.1.7.14,1.04.78-.22,1.52-.44,2.18-.66,2.7-.89,3.88-1.57,4.34-1.89.71-.49,1.39-1.15,2.02-1.97,1.05-1.78,2.48-2.57,3.53-2.92.53-.18,1.08-.26,1.63-.26h0c1.77.01,3.99,1.04,4.93,3.88.77,2.32.48,4.88-.85,7.61-1.08,2.19-2.77,4.26-5.04,6.16-2.22,1.86-4.88,3.31-7.91,4.31-1.42.47-3.84,1.08-7.39,1.85-.03,0-.07.01-.1.02-2.93.57-5.16,1.11-6.65,1.6-1.13.37-1.48.6-1.5.6-.36.23-.53.39-.59.44-.87.87-1.71,1.43-2.63,1.73-.58.19-1.17.29-1.75.28Z"/>
  <path class="cls-1" d="M162.59,67.89c-1.6-.01-3.97-.53-6.13-2.89-1.64-1.79-2.78-4.17-3.5-7.26-.99-4.29-.97-8.94.07-13.82,1.04-4.9,3.04-9.29,5.94-13.06,3.15-4.08,7.08-6.7,11.68-7.76,1.48-.34,3.01-.51,4.54-.5h.09c1.59.01,2.94.19,4.14.54,2.2.65,3.58,2.83,3.21,5.1-.18,1.07-.19,1.59-.19,1.76,0,.6.01,1.02.01,1.26.06,1.65.16,4.11.31,7.4.04.84.08,1.68.11,2.5.34-.07.68-.1,1.02-.09,1.87.02,4.32,1.16,5.05,4.34.13.54.2,1.04.21,1.51.19,2.24-.06,4.56-.74,6.91-.71,2.43-1.82,4.6-3.29,6.43-1.75,2.18-3.87,3.56-6.29,4.12-.67.16-1.35.23-2.01.23-1.8-.02-3.49-.64-4.89-1.79-.06-.05-.12-.1-.18-.15-2.37,2.8-4.75,4.45-7.27,5.03-.64.15-1.29.22-1.93.22Z"/>
  <path class="cls-1" d="M209.23,58.16c-2.2-.02-4.69-1.59-4.93-5-.17-2.37.82-4.69,3.03-7.09.61-.67.8-1.09.85-1.24.03-.08.29-.89.51-3.82l1.67-19.22c-.13.09-.27.18-.4.26-.83.49-1.72.78-2.65.85-.18.01-.34.02-.49.02-1.6-.01-3.06-.72-4-1.93-.65-.82-1.03-1.85-1.12-3.04-.08-1.04.08-2.12.48-3.21.8-2.4,2.2-4.7,4.18-6.84,1.94-2.1,4.47-3.88,7.5-5.29,2.99-1.39,6.4-2.23,10.13-2.5.96-.07,1.9-.1,2.8-.1,4.41.04,8.24,1.02,11.37,2.92,4.23,2.56,6.65,6.57,7.02,11.6.29,3.95-.6,7.82-2.66,11.51-1.98,3.55-4.85,6.56-8.53,8.95-2.65,1.72-5.56,2.96-8.69,3.7l-.32,3.25c1.45.03,2.74.62,3.65,1.66.74.85,1.16,1.89,1.25,3.12.08,1.08-.11,2.13-.55,3.12-.23.5-.49,1-.78,1.48-.03.04-.05.08-.08.13-2.44,3.71-5.29,5.71-8.48,5.94-.25.02-.52.03-.81.03-.56,0-1.15-.05-1.79-.15-.69-.1-1.13-.17-1.34-.2-.11-.02-.22-.04-.33-.07-.79-.2-1.32-.25-1.62-.25-.08,0-.15,0-.22,0-.39.03-.71.11-1,.26-1.37.7-2.24,1.07-3.25,1.14-.12,0-.28.01-.41.01ZM227.73,15.03c-.14.47-.32.96-.54,1.49,0,0-.22.63-.35,2.7,0,.03-.44,4.95-.44,4.95.71-.37,1.15-.81,1.46-1.19.63-.76,1.44-2.09,1.24-4.83-.11-1.51-.48-2.5-1.1-2.95-.08-.06-.17-.11-.27-.17Z"/>
  <path class="cls-1" d="M248.88,56.74c-5.7-.05-7.76-4.86-7.79-8.96,0-1.09.11-2.4.37-4.01,0-.04,1.52-8.03,1.52-8.03-2.19-.42-4.18-2.3-4.2-5.5-.02-2.15.72-4.42,2.26-6.93,1.35-2.2,3.06-4.13,5.09-5.73.09-.07.17-.14.26-.2-.1-.54-.12-1.16-.03-1.87,0-.05.93-5.52.93-5.52.45-2.5,1.56-4.55,3.31-6.13,1.83-1.65,4.28-2.5,7.27-2.52,0,0,.62,0,.64,0,1.51.01,2.87.6,3.84,1.66.97,1.06,1.44,2.48,1.32,3.99-.01.13-.03.27-.05.4l-.91,5.36c-.36,2.27-1.28,4.17-2.65,5.61.63,1.19,1.02,2.7,1.04,4.59,0,1.03-.15,2.43-.51,4.54l-1.4,7.55c2.25.37,4.33,2.28,4.35,5.6.02,2.38-.69,4.86-2.12,7.35-1.3,2.28-2.97,4.25-4.95,5.85-2.36,1.91-4.87,2.89-7.46,2.91h-.15Z"/>
  <path class="cls-1" d="M277.47,57.03c-.35,0-.71-.02-1.08-.04-1.34-.09-2.89-.38-4.72-.87-.71-.18-1.48-.36-2.29-.54-.64-.14-1.31-.24-1.97-.29-.4-.03-.79-.04-1.17-.05-.89,0-1.67.06-2.32.19-2.04.42-2.64.49-3.2.48-.09,0-.2,0-.29-.01-1.75-.12-3.24-1.03-4.09-2.5-.88-1.53-.86-3.39.04-5.03l2.47-4.85c.52-1.03,1.42-1.82,2.5-2.21.03-.02.08-.06.16-.13.3-.28.91-.87,2.01-2.07,0,0,1.51-1.64,1.53-1.67l6.62-6.93c-.15.09-.29.21-.44.34-.03.03-.07.06-.1.09-.97.84-2.31,1.81-4.14,1.79-.09,0-.2,0-.3-.01-2.45-.17-4.94-2.22-4.71-5.69.05-.68.2-1.43.48-2.3.85-2.91,2.61-5.25,5.09-6.76,2.08-1.27,4.51-1.9,7.2-1.88.34,0,.68.02,1.03.04,1.61.11,3.43.5,5.58,1.19,1.76.59,2.63.72,2.99.75.18.01.34.02.5.02.33,0,.47-.02.47-.02.27-.06.55-.15.84-.28,1.17-.51,2.15-.75,3.09-.74.09,0,.23,0,.32.01,2.43.17,4.89,2.19,4.66,5.63-.08,1.19-.47,2.36-1.17,3.47l-2.81,4.66c-.21.34-.46.66-.75.93-.4.38-.77.76-1.1,1.14l-1.12,1.26c-1.07,1.24-2.04,2.31-2.87,3.17l-4.7,4.82c.15,0,.29.01.43.01.03,0,.07,0,.1,0,.93-1.31,2.41-2.09,4.01-2.07.09,0,.19,0,.28.01,2.18.15,3.94,1.57,4.73,3.8.38,1.07.52,2.24.44,3.49-.21,3.16-1.89,5.86-4.72,7.63-2.15,1.34-4.68,2.01-7.5,1.98Z"/>
  <path class="cls-1" d="M304.71,60.13c-.76,0-1.55-.07-2.34-.18-1.33-.19-2.85-.6-4.64-1.24-.7-.23-1.45-.47-2.25-.71-.63-.19-1.28-.34-1.94-.44-.82-.12-1.58-.18-2.26-.19-.45,0-.86.02-1.23.06-1.73.22-2.36.26-2.81.25-.31,0-.54-.03-.72-.05-1.74-.25-3.16-1.28-3.89-2.82-.76-1.6-.6-3.41.43-4.99l2.83-4.64c.6-.99,1.55-1.7,2.66-2.01.03-.02.09-.06.17-.12.32-.25.97-.8,2.16-1.91,0,0,1.63-1.52,1.65-1.54l7.14-6.4c-.15.08-.31.18-.46.31-.04.03-.08.06-.11.09-.94.7-2.23,1.5-3.89,1.49-.21,0-.46-.02-.67-.05-2.44-.36-4.76-2.6-4.26-6.04.1-.68.31-1.4.65-2.25,1.07-2.84,3.01-5.03,5.59-6.35,1.84-.94,3.89-1.4,6.1-1.38.73,0,1.49.07,2.25.18,1.59.23,3.38.76,5.47,1.62,1.71.73,2.56.92,2.92.97.42.06.69.08.84.08.05,0,.09,0,.14,0,.28-.04.56-.11.87-.21,1.03-.36,1.89-.52,2.71-.52.26,0,.51.02.76.06,1.68.24,3.11,1.32,3.81,2.87.42.94.55,1.97.39,3.09-.17,1.19-.65,2.32-1.43,3.37l-3.16,4.43c-.23.32-.5.62-.81.87-.43.36-.83.71-1.18,1.05l-1.22,1.18c-1.16,1.16-2.21,2.15-3.1,2.94l-5.05,4.45c.21.03.38.04.52.05.94-1.14,2.31-1.79,3.79-1.78.21,0,.46.02.66.05,2.16.31,3.81,1.87,4.41,4.16.29,1.09.35,2.27.17,3.51-.45,3.13-2.34,5.7-5.3,7.24-1.9.99-4.04,1.48-6.36,1.46Z"/>
  <path class="cls-1" d="M337.81,71.07c-.75-.15-1.46-.39-2.12-.73-1.91-.97-3.16-2.62-3.53-4.65-.01-.06-.02-.13-.03-.19-1.95.34-3.61.36-5.08.07-.79-.16-1.52-.41-2.19-.74-2.26-1.15-3.57-3.27-3.69-5.97-.09-2,.45-4.11,1.64-6.45,1.61-3.17,4.06-6.08,7.29-8.64,3.22-2.56,6.75-4.33,10.47-5.26,2.59-.64,5.09-.74,7.42-.28.4.08.8.17,1.19.29,2.68-3.08,4.88-5.38,6.69-7,2.4-2.16,4.99-3.73,7.7-4.68,2.49-.85,4.63-1.16,6.56-.97.68.07,1.38.17,2.09.31,1.01.2,2.07.48,3.14.82,1.5.49,1.9.59,1.97.6.7.16,1.1.27,1.53.49,1,.51,1.74,1.37,2.08,2.42.25.77.4,1.98-.32,3.39-.44.88-1.15,1.64-2.15,2.31-.68.45-1.42.84-2.2,1.13-.17.07-.35.12-.53.16-1.01.22-1.99.24-2.91.06-.77-.16-1.51-.43-2.32-.83-.13-.05-.26-.09-.39-.11-.25-.05-1.01-.2-2.42.63-.96.58-2.08,1.58-3.3,2.96-1.43,1.62-4.1,4.96-7.93,9.9h0c-.5.7-1.81,2.41-5.65,7.42-.07.09-.13.17-.2.26,1.35.78,2.13,2.22,2.04,3.82-.04.72-.25,1.45-.65,2.23-.85,1.68-2.24,3.2-4.11,4.51-1.76,1.24-3.69,2.1-5.72,2.56-1.56.35-3.02.4-4.36.14Z"/>
  <path class="cls-1" d="M352.89,79.28c-1.5-.3-2.9-.84-4.17-1.61-2.61-1.6-4.21-3.93-4.62-6.75-.38-2.59.3-5.32,2.01-8.12,1.74-2.85,4.29-5.4,7.58-7.57,3.23-2.14,6.6-3.58,10.04-4.28,2.27-.46,4.38-.51,6.27-.14,1.37.27,2.64.76,3.78,1.46,2.38,1.46,3.29,3.37,3.64,4.72.35,1.38.44,3.55-1.11,6.09-1.24,2.03-3.12,3.7-5.58,4.96-.73.38-1.5.71-2.31,1.01.46.74.67,1.61.6,2.5-.07.79-.34,1.55-.85,2.39-1.04,1.7-2.74,3.06-5.19,4.13-2.16.95-4.52,1.45-7,1.49-1.06.02-2.1-.07-3.08-.27Z"/>
  <path class="cls-3" d="M124.82,74.05c-.12-.08-.23-.27-.33-.57-.48-1.46-.38-2.98.31-4.57.69-1.59,1.66-2.58,2.9-3l1.42-.47c.49-1.69.44-4.12-.14-7.31l-3.52-22.48c-.3-2.04-.24-4.04.16-5.98.4-1.94,1.21-3.97,2.41-6.09,1.06-1.97,2.3-3.62,3.72-4.95,1.42-1.33,3.13-2.32,5.15-2.99.99-.33,1.89-.54,2.71-.65.82-.11,1.73-.16,2.73-.16,1.14,0,1.75.11,1.82.33.11.34-.06.91-.51,1.7-.45.79-1.04,1.55-1.75,2.26-.72.71-1.33,1.16-1.85,1.33-.22.07-.77.11-1.67.13-.9.01-1.8.17-2.7.47-1.37.46-2.33,1.08-2.88,1.88-.65.93-1.02,2.09-1.13,3.48-.11,1.39.03,3.33.43,5.82l4.03,25.31c.38,2.44.22,4.48-.48,6.09l.02.06c1.09-.17,2.48-.46,4.17-.88,1.69-.42,3.21-.85,4.54-1.29,2.49-.82,4.32-1.65,5.5-2.47,1.18-.82,2.27-1.89,3.25-3.22.29-.57.67-.94,1.14-1.09.34-.11.61.13.81.73.38,1.16.18,2.55-.62,4.17-.8,1.62-2.09,3.18-3.88,4.68-1.79,1.5-3.93,2.66-6.42,3.48-1.25.41-3.55.99-6.93,1.72-3.13.61-5.53,1.19-7.21,1.75-1.12.37-1.95.73-2.5,1.08-.55.35-1,.7-1.36,1.06-.36.36-.64.57-.86.64-.21.07-.38.07-.5-.01Z"/>
  <path class="cls-3" d="M160.84,61.02c-1.09-1.19-1.89-2.93-2.42-5.22-.84-3.65-.82-7.61.08-11.85.9-4.24,2.6-7.99,5.1-11.23,2.5-3.24,5.53-5.28,9.1-6.1,1.15-.26,2.31-.39,3.49-.39s2.17.12,2.97.36c-.17,1.06-.25,1.91-.24,2.56.01.65.01,1.06.01,1.25.06,1.66.16,4.17.32,7.55.15,3.37.3,6.6.46,9.67.04,1.38.14,2.43.3,3.13.11.49.27.82.48,1,.2.19.46.24.77.17.75-.17,1.33-.78,1.74-1.83.41-1.04.78-2.46,1.11-4.26.03-.28.09-.53.18-.74.09-.21.25-.33.47-.39.4-.09.67.17.81.79.07.31.1.56.1.74.17,1.73-.02,3.52-.57,5.38-.54,1.87-1.37,3.48-2.47,4.85-1.1,1.37-2.35,2.21-3.76,2.54-1.15.26-2.13.05-2.97-.64-.83-.69-1.41-1.74-1.74-3.15-.08-.35-.16-.89-.23-1.62l-.19-2.32-.13.03c-1.06,2.84-2.45,5.3-4.18,7.37-1.73,2.07-3.36,3.28-4.9,3.64-1.37.32-2.59-.12-3.68-1.31ZM169.91,51.48c1.12-2.07,2.04-4.56,2.76-7.49.72-2.93,1-5.74.84-8.44l-.13-2.68c-1.25-.41-2.34-.5-3.27-.29-1.41.33-2.63,1.52-3.66,3.59-1.03,2.07-1.68,4.59-1.95,7.55-.27,2.96-.07,5.87.59,8.74.24,1.06.49,1.76.73,2.09.24.34.56.46.96.37.97-.22,2.02-1.37,3.14-3.44Z"/>
  <path class="cls-3" d="M209.84,51.91c-.08-1.04.53-2.26,1.84-3.67.88-.97,1.48-1.91,1.8-2.82.32-.91.57-2.57.75-4.98l1.95-22.38c.07-.91.48-1.84,1.22-2.78s1.66-1.74,2.74-2.41c1.08-.67,2.14-1.04,3.18-1.12.72-.05,1.1.15,1.13.6.02.23-.14.74-.46,1.53-.33.8-.55,2.17-.68,4.13l-.93,10.47c.69.08,1.55.09,2.58.01,3.2-.24,5.67-1.42,7.42-3.54,1.75-2.12,2.5-4.81,2.26-8.05-.22-2.93-1.21-5.03-2.98-6.31-1.77-1.27-4.35-1.79-7.73-1.54-5.55.41-10.12,2.58-13.73,6.52-.17.19-.42.48-.75.87-.33.39-.61.65-.83.78-.22.13-.44.2-.66.22-.27.02-.46-.03-.56-.16-.1-.13-.16-.33-.18-.6-.03-.41.05-.86.24-1.38.59-1.81,1.66-3.56,3.22-5.23,1.55-1.68,3.58-3.1,6.08-4.26,2.5-1.16,5.35-1.86,8.55-2.09,4.69-.35,8.52.38,11.48,2.18,2.97,1.8,4.58,4.48,4.84,8.04.23,3.07-.47,6.05-2.09,8.96-1.62,2.91-3.97,5.36-7.04,7.35-3.07,2-6.54,3.2-10.41,3.62l-.89,9.11c0,.54-.13,1.1-.39,1.66-.25.56-.55,1.04-.88,1.43v.07c.67.36,1.58.5,2.75.41.63-.05,1.25-.22,1.87-.51.61-.29,1.01-.45,1.19-.46.23-.02.38.02.45.1.07.09.12.24.14.47.02.32-.03.63-.17.93-.14.31-.31.62-.51.96-1.63,2.48-3.3,3.78-5.01,3.91-.45.03-.99,0-1.6-.09s-1.02-.15-1.2-.18c-1.25-.32-2.34-.44-3.29-.37-.99.07-1.9.32-2.73.75-.83.42-1.34.64-1.52.66-.27.02-.43-.24-.47-.78Z"/>
  <path class="cls-3" d="M246.65,46.83c0-.81.1-1.9.31-3.26l3.13-16.43c.08-.81.12-1.31.12-1.49,0-.63-.21-.95-.62-.94-.41,0-.88.34-1.42.99-.54.66-1.23,1.74-2.08,3.24-.04.09-.15.28-.3.58-.16.3-.3.51-.44.65s-.27.21-.4.21c-.41,0-.61-.36-.62-1.08,0-1.27.52-2.77,1.59-4.52,1.07-1.75,2.42-3.26,4.03-4.54,1.62-1.28,3.19-1.92,4.73-1.94,1.9-.01,2.86,1.24,2.88,3.77,0,.72-.14,1.97-.45,3.73l-3.25,17.52c-.09.36-.13.61-.13.75,0,.54.25.81.75.81.59,0,1.25-.48,1.99-1.44.74-.96,1.44-2.25,2.11-3.88.22-.63.49-.95.81-.96.41,0,.61.38.62,1.15.01,1.58-.49,3.27-1.52,5.06-1.03,1.79-2.31,3.32-3.86,4.57-1.55,1.25-3.09,1.89-4.63,1.9-2.21.02-3.33-1.47-3.36-4.45ZM251.97,15.83c-.09-.11-.12-.33-.07-.64l.91-5.36c.26-1.45.88-2.62,1.87-3.51s2.41-1.34,4.26-1.36h.54c.5,0,.72.24.68.74l-.91,5.36c-.52,3.26-2.58,4.9-6.2,4.93h-.47c-.32,0-.52-.05-.61-.16Z"/>
  <path class="cls-3" d="M261.29,50.22c-.08-.14-.04-.34.11-.6l2.51-4.93c.56-.19,1.11-.54,1.67-1.04.55-.51,1.32-1.29,2.3-2.36l1.47-1.6,12.14-12.7c-.9-.11-2.01-.48-3.32-1.11-.7-.36-1.32-.63-1.85-.81-.53-.17-1.14-.28-1.81-.33-2.07-.14-3.86.48-5.36,1.88-.53.46-.91.69-1.13.67-.36-.02-.52-.31-.49-.85.02-.31.12-.74.29-1.27.53-1.87,1.57-3.27,3.11-4.21,1.54-.94,3.39-1.33,5.55-1.19,1.22.08,2.71.41,4.49.98,1.68.57,3.04.89,4.08.96.9.06,1.64.03,2.21-.09.57-.12,1.15-.31,1.74-.56.58-.25,1.01-.37,1.28-.35.32.02.46.28.42.78-.03.45-.2.92-.5,1.39l-2.83,4.7c-.49.47-.94.93-1.35,1.4-.42.47-.8.9-1.14,1.28-1.03,1.2-1.94,2.2-2.72,3.01l-8.69,8.92c-.69.77-1.32,1.41-1.9,1.91v.07c1.3.13,2.66.41,4.09.82.27.06.85.19,1.74.39.89.2,1.81.33,2.76.39,1.35.09,2.35.02,3-.2.65-.23,1.15-.65,1.51-1.26.1-.08.18-.2.26-.36.08-.15.19-.22.32-.22.31.02.56.28.73.76s.23,1.05.19,1.68c-.12,1.71-.98,3.07-2.59,4.07-1.61,1-3.56,1.42-5.86,1.27-1.04-.07-2.34-.32-3.89-.74-.76-.19-1.57-.38-2.44-.57-.87-.2-1.76-.32-2.66-.38-1.8-.12-3.37-.05-4.7.22-1.33.27-2.09.4-2.27.39-.23-.02-.38-.09-.46-.24Z"/>
  <path class="cls-3" d="M287.76,51.95c-.07-.15-.02-.35.16-.59l2.88-4.72c.57-.14,1.15-.45,1.74-.91.59-.46,1.42-1.19,2.48-2.17l1.59-1.48,13.08-11.73c-.89-.17-1.96-.63-3.23-1.36-.67-.42-1.26-.73-1.78-.94s-1.11-.37-1.78-.47c-2.06-.3-3.89.19-5.49,1.46-.57.42-.96.61-1.18.58-.36-.05-.5-.35-.42-.88.05-.31.18-.73.39-1.25.68-1.82,1.82-3.14,3.42-3.96,1.6-.82,3.48-1.07,5.63-.76,1.21.18,2.67.62,4.4,1.33,1.63.7,2.97,1.12,4,1.27.89.13,1.63.16,2.21.08.58-.07,1.17-.22,1.78-.43.6-.21,1.04-.29,1.3-.26.31.05.43.31.36.81-.07.45-.27.9-.61,1.35l-3.19,4.47c-.52.43-1.01.86-1.46,1.3-.45.44-.86.83-1.24,1.19-1.12,1.12-2.1,2.05-2.94,2.79l-9.35,8.23c-.75.71-1.42,1.3-2.04,1.76v.07c1.28.23,2.62.61,4,1.13.26.08.83.26,1.71.52s1.78.47,2.72.6c1.34.2,2.34.2,3.01.03s1.2-.56,1.6-1.14c.1-.08.2-.19.29-.34.09-.15.2-.21.34-.19.31.05.54.32.67.82.13.5.15,1.06.06,1.69-.25,1.7-1.21,2.99-2.89,3.86-1.68.87-3.66,1.14-5.94.81-1.03-.15-2.3-.5-3.82-1.04-.74-.25-1.54-.5-2.39-.76s-1.73-.46-2.62-.59c-1.79-.26-3.36-.31-4.71-.14-1.35.17-2.11.24-2.29.21-.22-.03-.37-.12-.44-.27Z"/>
  <path class="cls-3" d="M325.88,58.11c-.06-1.33.35-2.86,1.23-4.59,1.37-2.7,3.46-5.16,6.28-7.4,2.81-2.24,5.83-3.75,9.04-4.55,3.21-.8,6.1-.54,8.66.76l.15.08c3.35-3.95,6.05-6.84,8.09-8.68,2.04-1.83,4.18-3.14,6.43-3.93,1.93-.66,3.58-.92,4.95-.78,1.38.13,2.86.46,4.44.97,1.15.37,1.91.61,2.29.69.37.09.6.15.66.18.27.14.31.39.12.75-.15.3-.45.6-.9.9-.45.3-.93.55-1.45.74-.52.11-.99.13-1.4.04-.42-.09-.91-.27-1.47-.56-1.97-.83-4.06-.59-6.27.71-1.33.79-2.73,2.03-4.21,3.7-1.48,1.68-4.18,5.04-8.09,10.09-.05.1-1.94,2.58-5.66,7.43-2.31,2.97-3.59,4.63-3.84,4.96-.71.9-1.2,1.61-1.47,2.14-.19.37-.26.66-.23.89.03.23.16.4.4.52.57.29,1.24.21,2.03-.22.79-.44,1.79-1.14,3-2.12.05-.02.15-.08.29-.2.14-.12.27-.19.39-.21.12-.02.23-.01.33.04.27.14.25.5-.06,1.1-.58,1.13-1.55,2.18-2.91,3.14-1.37.96-2.83,1.62-4.4,1.97-1.56.36-2.88.26-3.94-.28-.87-.44-1.38-1.1-1.54-1.98-.16-.88.03-1.85.57-2.92.14-.27.37-.65.71-1.15l1.11-1.57-.1-.05c-2.18,1.24-4.37,2.05-6.56,2.45-2.19.39-3.87.3-5.03-.3-1.03-.52-1.58-1.45-1.63-2.78ZM336.69,56.88c1.81-.71,3.72-1.81,5.72-3.28,2-1.47,3.67-3.11,5.01-4.9l1.34-1.77c-.58-.92-1.22-1.56-1.92-1.92-1.07-.54-2.47-.43-4.22.34-1.75.77-3.5,2.01-5.24,3.75-1.74,1.73-3.16,3.68-4.26,5.85-.41.8-.62,1.37-.65,1.71-.03.34.11.59.41.74.73.37,2,.2,3.81-.51Z"/>
  <path class="cls-3" d="M348.79,69.79c-.25-1.71.25-3.58,1.5-5.62,1.46-2.39,3.61-4.52,6.44-6.4,2.83-1.88,5.74-3.12,8.72-3.73,2.98-.61,5.42-.33,7.33.84,1.05.64,1.7,1.46,1.95,2.44.25.99.03,2.05-.68,3.2-.88,1.43-2.24,2.63-4.09,3.57-1.85.95-3.97,1.58-6.37,1.88-2.4.31-4.84.24-7.34-.19-1.25,2.26-.95,3.95.9,5.08,1.02.62,2.18.9,3.48.81,1.3-.08,2.63-.45,3.99-1.1.34-.19.61-.32.83-.38.22-.07.39-.06.51.02.19.12.28.26.26.43-.01.17-.12.41-.31.73-.62,1.02-1.79,1.9-3.5,2.66-1.71.75-3.56,1.14-5.54,1.17-1.99.03-3.73-.41-5.23-1.33-1.66-1.01-2.61-2.37-2.86-4.08ZM362.46,63.18c1.03-.05,2.03-.32,3-.82.97-.5,1.73-1.22,2.3-2.14.7-1.15.59-2-.33-2.57-.99-.6-2.26-.53-3.82.23-1.56.76-3.08,2.1-4.57,4.03.13.21.41.45.82.7.7.43,1.57.62,2.6.57Z"/>
  <path class="cls-1" d="M328.48,28.23c-.88,0-1.74-.33-2.42-.9-.78-.66-1.27-1.62-1.34-2.64l-.03-.37c-.14-2.04,1.35-3.8,3.37-4.02,3.01-.33,5.06-1.17,6.22-2.57-1.47-1.19-2.51-2.68-3.1-4.45-.75-2.27-.64-4.49.32-6.59,1.02-2.22,2.64-3.79,4.81-4.65,1.04-.41,2.07-.61,3.14-.6,1.19,0,2.34.28,3.51.81,2.41,1.1,4.07,3.06,4.93,5.83.85,2.7.65,5.45-.6,8.17-3.22,7.04-9.42,11.06-18.42,11.97-.14.01-.28.02-.41.02Z"/>
  <path class="cls-3" d="M328.34,23.94c5.07-.55,8.41-2.5,9.92-5.81.48-1.05.1-2.3-.89-2.9-1.37-.82-2.25-1.9-2.71-3.28-.45-1.35-.39-2.6.17-3.82.61-1.32,1.51-2.21,2.76-2.7.58-.23,1.14-.34,1.71-.34.64,0,1.28.16,1.96.47,1.43.65,2.35,1.77,2.89,3.51.57,1.81.43,3.59-.42,5.45-2.65,5.79-7.69,9.01-15.36,9.78l-.03-.37Z"/>
  <path class="cls-1" d="M316.62,775.81c-7.02.68-13.83-5.55-16.65-15.63-2.27-8.11-1.73-16.86,1.4-23.77.77-1.71,1.68-3.34,2.76-4.93-.35-4.26-.64-8.53-.9-12.8-7.35.02-13.86-7.59-15.5-18.59-.68-4.52-.32-8.4.19-11.89.16-1.11.38-2.2.65-3.25,1.83-7.02,5.22-13.4,10.02-18.86,4.03-4.59,8.93-8.22,14.94-11.11,5.44-2.61,11.54-4.28,18.12-5.02,2.16-.24,4.24-.37,6.19-.38,1.7-.01,3.36.07,4.92.23,4.4.45,8.26,1.55,11.81,3.33,8.68,4.38,14.66,12.83,17.16,23.9,1.52,6.72,1.59,13.29.23,19.57,3.32,3.9,5.79,8.45,7.42,13.61,3.12,9.91,2.63,20.28-1.44,29.7-2.98,6.87-7.51,12.85-13.54,17.8-5.32,4.36-11.31,7.65-17.85,9.65-1.5.46-3.54.95-6.24,1.49-1.89.38-4.07.78-6.45,1.19-2.77.49-4.48.8-5.63,1.04-.58.12-.85.18-.97.21-.04.01-.95.28-3.43,1.7-1.97,1.24-3.64,2.03-5.23,2.46-.23.07-.47.12-.71.17-.4.08-.83.15-1.26.19Z"/>
  <path class="cls-1" d="M393.89,748.4c-2.89.22-5.8-.09-8.63-.95-6.79-2.04-12.56-6.92-16.97-14.6-4.6-8.02-6.92-17.69-6.77-28.43.14-9.67,2.22-18.71,6.09-26.65,4.33-8.88,10.3-14.66,17.55-17.36,2.32-.86,4.64-1.32,6.9-1.37.63-.01,1.27,0,1.89.05,1.72.13,3.41.5,5.05,1.08,5.38,1.94,9.77,6.16,12.83,12.15,2.38,4.67,3.7,9.86,3.94,15.36,1.85,1.44,3.51,3.36,4.94,5.74,2.58,4.28,5.29,11.41,3.8,21.88-.88,6.2-3.09,12.06-6.62,17.53-3.5,5.42-8.02,9.64-13.51,12.47-2.66,1.37-5.38,2.32-8.09,2.79-.8.14-1.61.24-2.41.3Z"/>
  <path class="cls-1" d="M433.71,726.66c-2.22.11-4.52-.16-6.82-.81-4.83-1.37-9.43-4.32-13.6-8.83-5.97-6.45-10.05-14.76-11.95-24.53-1.92-9.85-1.2-19.68,2.08-28.85,3.38-9.46,9.19-16.48,17.05-20.88,2.3-1.29,4.76-2.32,7.29-3.09,2.7-.81,5.11-1.25,7.37-1.35.25-.01.45-.01.66,0,.37,0,.73.03,1.09.06,6.07.65,11.13,5.77,12.76,12.69.02.07.03.14.05.2.2.43.34.74.44.97.66,1.32,1.66,3.29,3.07,5.9.49-.07.98-.11,1.48-.12.34,0,.73,0,1.16.02,2.7.17,6.66,1.25,10.37,5.24.94,1.01,1.72,2.02,2.4,3.08,2.65,3.91,4.46,8.3,5.41,13.1,1.07,5.46.88,10.76-.59,15.86-1.71,5.9-5.09,10.77-9.88,14.11-2.79,1.95-5.84,3.16-9.08,3.56-.55.07-1.12.11-1.68.13-.12,0-.24,0-.36,0-2.18,4.2-4.99,7.53-8.44,9.93-2.59,1.8-5.45,2.96-8.5,3.4-.58.08-1.18.14-1.77.17Z"/>
  <path class="cls-1" d="M481.76,689.82c-4.36,0-8.88-1.48-13.4-4.48-2.42-1.61-5.2-3.95-8.24-7.01-.54-.54-1.07-1.09-1.6-1.63-1.09.35-2.22.56-3.38.63-.41.02-.81.03-1.22.02-3.16-.1-6.2-1.28-9.02-3.55-3.98-3.2-6.89-8.07-8.55-14.45-1.33-5.09-1.65-10.37-.95-15.61.95-7.18,4.12-13.26,8.78-17.05,3.47-2.82,7.45-4.18,11.51-4.02.01,0,.02,0,.03,0,1.42-4.72,4.06-8.77,7.72-11.8,2.15-1.78,4.45-2.89,6.85-3.35,1.11-.21,2.23-.27,3.33-.19.39.03.77.07,1.16.13,2.86.45,5.56,1.82,7.82,3.94,1.98,1.87,3.2,3.97,3.99,5.57.14.2.39.53.76,1.01.2.26.39.51.57.77,0,0,.01.01.02.02.11.15,1.49,2.13,4.72,6.06,1.08-.22,2.19-.32,3.31-.27.39.02.79.05,1.18.09,2.81.34,5.51,1.49,8.03,3.4,3.67,2.76,6.63,6.5,8.85,11.1,2.22,4.61,3.31,9.37,3.24,14.24-.09,6.54-2.55,12.41-7.04,16.7-2.59,2.46-5.62,4.16-8.93,4.95-1.57,4.31-3.98,7.33-6.06,9.3-3.3,3.14-7.39,5.04-11.85,5.42-.54.04-1.09.07-1.63.07Z"/>
  <path class="cls-1" d="M510.68,656.02c-2.11-.12-4.04-.51-5.89-1.18-4.16-1.42-7.67-4.26-10.11-8.24-1.51-2.45-2.56-5.19-3.14-8.13-2.17-.52-4.22-1.35-6.12-2.48-4.79-2.84-8.39-6.98-10.63-12.3-2.19-5.18-2.84-10.99-1.87-16.67.93-5.46,3.22-10.35,6.76-14.43,3.17-3.66,6.85-6.13,10.9-7.39,2.54-.79,5.08-1.04,7.57-.75.49.06.98.13,1.46.23,2.56.51,4.96,1.57,7.16,3.14,3.39,2.43,5.97,5.88,7.71,10.27.14.36.27.72.38,1.07.18.58.34,1.14.47,1.7,2.85.65,5.63,1.77,8.27,3.32,5.45,3.21,9.37,7.56,11.73,12.98,2.2,5.07,2.92,10.27,2.14,15.6-.74,5.05-2.58,9.52-5.52,13.35-2.54,3.31-5.63,5.85-9.22,7.53-3.18,1.49-6.44,2.32-9.69,2.42-.08,0-.17,0-.25,0-.72.02-1.43,0-2.11-.03Z"/>
  <path class="cls-1" d="M528.84,629.93c-1.16-.12-2.3-.34-3.38-.65-3.98-1.05-7.52-3.38-10.21-6.78-1.84-2.33-3.23-5.01-4.13-7.97-2.28-.34-4.48-1.01-6.53-2.01-4.72-2.3-8.49-5.85-11.13-10.56-2.6-4.62-3.84-9.78-3.65-15.23.18-5.41,1.77-10.45,4.67-14.89,2.69-4.13,6.09-7.09,10.03-8.82,3.25-1.42,6.56-1.84,9.87-1.32.46.07.93.17,1.39.28,1.86.45,3.66,1.22,5.34,2.25,3.32,2.05,6.01,5.11,8.05,9.08.16.3.3.6.43.9.31.72.58,1.43.8,2.11.45.07.89.15,1.34.25,2.39.51,4.75,1.36,7.03,2.52,5.3,2.69,9.36,6.53,12.15,11.4,2.59,4.52,3.92,9.27,3.98,14.22.06,4.98-1.02,9.47-3.27,13.46-2.06,3.66-4.85,6.54-8.32,8.57-3.03,1.77-6.26,2.86-9.59,3.19-1.07.1-2.13.14-3.15.12-.58-.02-1.15-.05-1.71-.11Z"/>
  <path class="cls-1" d="M540.68,600.55c-1.92-.31-3.9-.81-5.9-1.5-6.16-2.11-11.94-5.68-17.11-10.75-5.1-4.99-8.89-10.72-11.24-16.95-3.87-10.33-1.98-18.3.23-22.98,2.5-5.31,6.72-9.03,11.77-10.48,2.8-.8,5.69-.88,8.61-.27.52.11,1.04.24,1.56.39,1.53.45,3.07,1.09,4.57,1.91,3.78,2.04,7.15,4.98,10.09,8.71.05,0,.1,0,.15,0,.84.02,1.68.11,2.5.26.4.08.8.17,1.21.28.99.27,1.99.64,3.06,1.13,4,1.83,7.49,4.82,10.72,9.05,2.78,3.64,4.85,7.63,6.15,11.89,1.69,5.5,1.65,10.9-.16,15.77-2.34,6.32-7.51,11.04-14.34,12.98-2.96.84-6.16,1.13-9.5.84-.78-.07-1.58-.17-2.38-.3Z"/>
  <path class="cls-1" d="M525.26,564.37c-.52-.12-1.03-.28-1.53-.46-5.01-1.77-7.71-5.85-8.58-7.2-1.21-1.85-2.22-3.86-3.01-5.98-.49-1.34-.86-2.67-1.08-3.99-2.45-2.54-4.34-5.72-5.61-9.49-1.94-5.77-1.98-11.6-.15-16.71,1.14-3.18,3.05-5.87,5.48-7.75,3.48-2.67,7.78-3.52,11.82-2.45.37.1.73.21,1.09.34.46.16.91.35,1.35.56,2.86-1.37,6.1-1.68,9.24-.84.36.1.72.21,1.08.33.54.19,1.09.42,1.61.68,4.9,2.45,7.19,6.77,7.96,8.18,1.05,1.94,1.9,3.99,2.55,6.09.04.13.08.26.12.4,2.76-1.15,5.9-1.41,9.03-.65.41.1.83.22,1.26.35.38.12.76.26,1.15.41,3.51,1.39,6.64,3.68,9.61,6.97,2.51,2.78,4.52,5.9,5.97,9.28,1.94,4.51,2.5,9.13,1.61,13.48-1.27,6.14-5.32,10.77-11.27,12.79-2.99,1.01-6.37,1.27-10.04.72-.72-.11-1.48-.25-2.25-.43-.63-.14-1.29-.31-1.94-.5-2.32-.67-5.07-1.75-8.15-3.22-.04-.02-.08-.04-.12-.06-1.94-.95-3.9-1.93-5.85-2.93-2.97,2-6.6,2.86-10.23,2.29-.38-.06-.75-.13-1.12-.22Z"/>
  <path class="cls-3" d="M316.07,756.05c-.41-1.43-.34-2.82.22-4.16.55-1.34,1.43-2.76,2.62-4.25,1.25-1.58,2.05-2.85,2.41-3.82.36-.96.46-2.34.32-4.12-1.52-14.15-2.49-28.34-2.92-42.52-.03-1.47.48-3.06,1.52-4.74,1.05-1.68,2.38-3.13,3.99-4.36,1.61-1.22,3.29-1.98,5.05-2.28,1.17-.2,1.82.07,1.96.81.08.44-.09,1.4-.49,2.89-.41,1.48-.57,3.67-.46,6.56.2,3.94.45,7.88.74,11.82,3.12-.64,6.23-1.31,9.33-1.98,3.11-1.44,5.31-3.76,6.61-6.93,1.3-3.17,1.53-6.54.75-10.17-.79-3.63-2.44-6.07-5.01-7.35-2.57-1.28-6.22-1.52-11.03-.72-5.97.98-10.7,2.76-14.17,5.45-3.47,2.69-6.47,5.87-8.96,9.55-.8,1.23-1.42,2.07-1.85,2.53-.43.46-.91.73-1.43.81-.83.12-1.33-.32-1.49-1.34-.05-.31.01-1.16.19-2.53.85-3.54,2.65-6.97,5.36-10.27,2.71-3.31,6.28-6.11,10.67-8.44,4.39-2.34,9.31-3.89,14.77-4.74,7.04-1.1,12.65-.64,16.99,1.37,4.33,2.02,7.05,5.54,8.24,10.68,1.75,7.55-.7,14.53-7.85,21.23,4.21,1.39,7.71,3.2,10.5,5.49,2.79,2.29,4.71,5.02,5.77,8.25,1.34,4.1,1.16,8.2-.63,12.41-1.79,4.21-4.68,7.98-8.75,11.3-4.07,3.32-8.64,5.77-13.72,7.26-1.87.55-5.65,1.31-11.37,2.2-4.07.66-6.63,1.1-7.66,1.37-1.5.4-3.53,1.34-6.09,2.8-1.08.68-1.91,1.1-2.46,1.24-.8.2-1.35-.22-1.66-1.27ZM354.7,733.98c2.08-2.6,2.52-5.66,1.4-9.25-1.74-5.59-5.98-9.15-12.81-10.87-3.91.92-7.84,1.82-11.79,2.69.59,6.55,1.29,13.09,2.12,19.61.2,1.28.26,2.29.19,3.05-.07.76-.27,1.57-.6,2.44.05.03.1.05.15.08,1.18,0,2.79-.15,4.84-.46,2.05-.32,3.92-.72,5.62-1.19,5.18-1.44,8.8-3.49,10.87-6.09Z"/>
  <path class="cls-3" d="M390.5,730.41c-3.38-1.07-6.22-3.54-8.46-7.42-2.62-4.55-3.93-10.03-3.92-16.32,0-6.29,1.27-12.04,3.64-17.19,2.38-5.15,5.59-8.5,9.58-10.16,2.2-.91,4.21-1.06,6.07-.47,1.86.6,3.33,1.96,4.45,4.1,1.39,2.67,1.91,5.8,1.52,9.45-.39,3.66-1.59,7.44-3.64,11.4-2.05,3.96-4.79,7.7-8.27,11.22,2.61,4,5.99,4.98,9.97,3.04,2.2-1.07,3.9-2.66,5.12-4.74,1.22-2.08,1.96-4.44,2.25-7.08.02-.67.09-1.2.2-1.59.11-.38.3-.64.57-.77.4-.19.74-.2,1.02-.04.27.16.59.53.94,1.09,1.13,1.81,1.48,4.31,1.04,7.55-.43,3.24-1.64,6.42-3.66,9.57-2.02,3.14-4.65,5.56-7.91,7.2-3.61,1.82-7.14,2.23-10.51,1.16ZM393.69,702.99c1.05-1.63,1.67-3.42,1.87-5.37.2-1.94-.16-3.77-1.08-5.52-1.14-2.16-2.66-2.83-4.62-1.99-2.09.9-3.39,2.9-3.87,6.03-.48,3.13.08,6.8,1.76,10.95.51,0,1.21-.21,2.1-.62,1.51-.68,2.78-1.85,3.84-3.49Z"/>
  <path class="cls-3" d="M432.18,709.43c-2.51-.75-4.98-2.4-7.34-4.96-3.77-4.08-6.27-9.2-7.49-15.23-1.23-6.03-.81-11.89,1.09-17.44,1.9-5.55,5.27-9.72,9.99-12.54,1.52-.91,3.13-1.65,4.84-2.23,1.71-.58,3.19-.92,4.46-1.02.34,1.43.71,2.55,1.09,3.35.38.81.63,1.33.73,1.56,1.04,2.05,2.65,5.14,4.96,9.2,2.3,4.06,4.61,7.87,6.89,11.44.99,1.62,1.85,2.8,2.57,3.53.5.5.96.8,1.39.89.43.09.85,0,1.25-.27.99-.66,1.41-1.72,1.29-3.18-.12-1.46-.55-3.34-1.27-5.65-.15-.35-.23-.68-.23-.97,0-.3.14-.54.42-.73.52-.34,1.08-.18,1.7.46.31.32.52.59.64.81,1.4,1.92,2.36,4.11,2.87,6.59.51,2.48.45,4.84-.19,7.09-.64,2.26-1.89,4.02-3.76,5.3-1.52,1.04-3.16,1.43-4.9,1.15-1.74-.28-3.36-1.14-4.83-2.62-.37-.37-.86-.96-1.47-1.78-.63-.89-1.25-1.78-1.87-2.67-.06.04-.12.08-.18.12.34,4.07-.03,7.87-1.18,11.44-1.15,3.58-2.77,6.1-4.88,7.53-1.87,1.27-4.08,1.56-6.59.8ZM439.41,692.07c.3-3.21.02-6.8-.79-10.83-.8-4.02-2.12-7.68-3.96-11-.59-1.1-1.18-2.21-1.76-3.33-2.06.14-3.71.58-4.95,1.33-1.88,1.15-3.01,3.33-3.33,6.55-.32,3.22.2,6.82,1.64,10.75,1.43,3.92,3.61,7.49,6.52,10.64,1.08,1.16,1.92,1.87,2.52,2.14.6.27,1.16.22,1.7-.14,1.32-.88,2.11-2.92,2.41-6.12Z"/>
  <path class="cls-3" d="M477.58,671.69c-1.62-1.09-3.66-2.84-6.07-5.28-4.07-4.14-7.99-8.43-11.76-12.84-.79-.99-1.53-1.78-2.21-2.36-.63-.54-1.17-.63-1.61-.25-.49.42-.68,1.15-.58,2.2.1,1.05.54,2.75,1.36,5.08.2.5.35.99.43,1.47.08.48,0,.83-.24,1.04-.49.43-1.16.3-2.02-.4-1.3-1.07-2.32-2.93-3.02-5.57-.7-2.64-.88-5.3-.54-7.96.34-2.66,1.3-4.65,2.85-5.96,1.07-.9,2.19-1.29,3.38-1.19,1.18.1,2.37.69,3.55,1.74.29.25.71.71,1.29,1.38,5.83,6.86,12.04,13.41,18.6,19.63.26.19.53.37.79.55.42.29.78.46,1.06.5.28.04.56-.07.84-.32,1.08-.99,1.36-2.82.89-5.51-.47-2.69-1.55-5.68-3.21-8.99-1.65-3.32-3.65-6.37-6-9.18-1.03-1.24-2.04-2.5-3.04-3.76-1.43-1.79-1.98-3.79-1.67-5.96.31-2.17,1.31-3.97,2.97-5.39.37-.31.68-.5.93-.55.25-.05.52.04.79.29.18.17.43.6.76,1.29.32.69,1.11,1.83,2.38,3.41,1.26,1.74,6.08,8.17,15.76,18.17.9,1.01,1.86,1.85,2.84,2.53.99.68,1.76.77,2.3.27.72-.66.87-1.52.45-2.6-.41-1.07-1.27-2.81-2.51-5.23-.49-.71-.57-1.21-.26-1.5.4-.36,1.03-.23,1.9.39,1.68,1.2,3.07,2.95,4.2,5.23,1.13,2.29,1.69,4.6,1.66,6.97-.03,2.37-.79,4.26-2.33,5.7-2.12,1.97-4.81,1.98-7.96-.09-1.49-.99-3.42-2.64-5.71-4.99-.07.02-.14.05-.22.07,1.27,3.79,1.96,7.39,1.99,10.85.04,3.46-.9,6.09-2.87,7.93-2.43,2.27-5.87,2.07-10.14-.81Z"/>
  <path class="cls-3" d="M518.6,640.28c-1.47.65-2.87.98-4.2.99-1.33,0-2.42-.17-3.26-.52-1.15-.38-2.06-1.12-2.75-2.22-.68-1.1-1.1-2.36-1.25-3.77-.1-.87-.05-1.42.13-1.65.14-.18.4-.28.78-.3.38-.02.82,0,1.32.08,1.99.42,3.76.55,5.31.4,1.55-.14,2.83-.86,3.83-2.12.83-1.05,1.15-2.09.95-3.15-.19-1.05-.88-1.88-2.05-2.49-.72-.38-1.75-.65-3.09-.81-1.33-.16-3.41-.26-6.23-.32-1.19,0-2.39,0-3.58-.01-3.14-.06-5.41-.21-6.81-.42-1.4-.21-2.63-.64-3.69-1.3-2.13-1.31-3.66-3.09-4.6-5.31-.94-2.22-1.19-4.54-.79-6.93.4-2.39,1.43-4.53,3.05-6.42,1.44-1.67,3.01-2.79,4.72-3.36,1.71-.57,3.2-.4,4.5.49.95.65,1.72,1.74,2.33,3.26.35,1.09.38,1.8.1,2.14-.14.17-.3.27-.47.28-.17.02-.39.02-.66.01-.27,0-.51-.02-.74-.04-2.51-.12-4.43.6-5.78,2.2-.88,1.03-1.31,2.07-1.3,3.09.01,1.02.54,1.87,1.58,2.54.78.5,1.67.8,2.67.9,1,.1,2.35.12,4.07.06.88-.01,1.77-.03,2.65-.04,1.2-.02,2.41-.03,3.61-.06,2.14,0,3.94.12,5.41.4,1.47.28,2.9.81,4.31,1.59,2.6,1.45,4.44,3.35,5.49,5.74,1.06,2.39,1.41,4.84,1.04,7.38-.38,2.54-1.26,4.72-2.67,6.52-1.14,1.45-2.44,2.51-3.91,3.15Z"/>
  <path class="cls-3" d="M537.77,614.83c-1.27.71-2.53,1.1-3.78,1.19-1.24.08-2.29-.02-3.13-.31-1.13-.29-2.1-.95-2.9-1.97-.8-1.02-1.37-2.2-1.72-3.55-.22-.84-.26-1.37-.12-1.59.11-.18.34-.29.69-.34.35-.04.76-.05,1.24,0,1.92.28,3.59.3,5.01.07,1.42-.23,2.51-.99,3.27-2.28.62-1.06.76-2.09.43-3.1-.33-1-1.09-1.77-2.26-2.3-.72-.33-1.72-.53-2.99-.6-1.27-.07-3.21-.04-5.85.08-1.11.07-2.22.15-3.34.22-2.94.15-5.08.16-6.41.05-1.33-.1-2.54-.44-3.62-.99-2.16-1.12-3.83-2.72-4.99-4.8-1.16-2.08-1.69-4.31-1.61-6.66.08-2.35.78-4.51,2.07-6.48,1.14-1.74,2.47-2.95,3.99-3.63,1.52-.68,2.93-.63,4.23.14.96.57,1.8,1.57,2.55,3.02.45,1.04.57,1.73.35,2.09-.11.18-.25.28-.41.31-.16.03-.36.05-.61.06-.25,0-.48.02-.69.02-2.34.06-4.04.91-5.11,2.56-.69,1.07-.97,2.11-.83,3.1.14.99.74,1.78,1.79,2.35.79.43,1.66.66,2.6.68.94.02,2.21-.05,3.8-.22.82-.07,1.64-.14,2.46-.22,1.12-.1,2.23-.2,3.35-.3,1.99-.15,3.68-.13,5.07.04,1.4.18,2.8.61,4.21,1.29,2.61,1.25,4.57,3,5.89,5.26,1.32,2.26,2.01,4.62,2.03,7.11.02,2.48-.47,4.63-1.52,6.45-.84,1.46-1.9,2.55-3.17,3.25Z"/>
  <path class="cls-3" d="M550.24,587.42c-2.54.63-5.65.31-9.25-1.03-4.21-1.57-8.21-4.18-11.88-7.87-3.67-3.69-6.24-7.66-7.79-11.82-1.55-4.16-1.57-7.68-.24-10.45.73-1.53,1.78-2.49,3.13-2.89,1.36-.4,2.91-.13,4.69.79,2.22,1.15,4.23,2.97,6.05,5.45,1.83,2.48,3.32,5.33,4.47,8.56,1.15,3.23,1.84,6.54,2.01,9.96,3.84,1.36,6.32.69,7.35-1.92.58-1.44.57-3.02.01-4.73-.56-1.72-1.54-3.45-2.93-5.21-.38-.43-.65-.78-.81-1.07-.16-.28-.2-.51-.13-.7.11-.27.29-.4.54-.4.25,0,.63.12,1.15.34,1.68.73,3.34,2.19,5.02,4.36,1.69,2.17,2.94,4.54,3.73,7.14.8,2.6.82,4.93.01,7.04-.89,2.33-2.6,3.82-5.15,4.45ZM535.61,570.03c-.36-1.41-1.04-2.76-2.04-4.04-.99-1.28-2.23-2.28-3.71-3-1.84-.89-3.06-.67-3.67.67-.66,1.43-.27,3.22,1.24,5.32,1.51,2.1,3.92,4.08,7.27,5.89.28-.21.55-.61.81-1.21.44-1.01.47-2.22.11-3.63Z"/>
  <path class="cls-3" d="M561.93,557.14c-1.29.39-3.17.19-5.61-.6-1.54-.5-3.53-1.36-5.95-2.61-5.88-3.08-11.58-6.32-17.1-9.72-.61,1.95-1.22,3.89-1.83,5.85-.17.53-.35.88-.54,1.05-.2.17-.42.2-.68.1-.46-.18-1-.75-1.61-1.71-.61-.96-1.11-1.97-1.49-3.05-.39-1.07-.49-1.88-.31-2.41.37-1.11.74-2.23,1.11-3.34-1.21-.75-2.41-1.51-3.6-2.28-1.67-1.15-2.9-2.9-3.66-5.24-.76-2.34-.82-4.32-.23-5.93.14-.39.33-.67.56-.84.23-.17.48-.19.75-.05.18.09.59.59,1.22,1.47.64.89,1.63,1.81,3,2.75,1.43,1,2.88,1.98,4.34,2.96.68-2.04,1.36-4.08,2.04-6.12.19-.58.36-.94.49-1.1.13-.16.32-.18.55-.07.46.22.97.85,1.52,1.88.55,1.03,1,2.11,1.35,3.25.34,1.14.45,1.92.32,2.35-.34,1.07-.68,2.15-1.01,3.22,5.47,3.46,11.13,6.77,16.97,9.92,1.7.98,3.06,1.63,4.04,1.98.72.25,1.25.32,1.59.21.34-.11.55-.37.65-.79.37-1.53-.69-3.44-3.07-5.8-.32-.27-.54-.51-.69-.72-.14-.21-.19-.4-.14-.59.12-.47.6-.54,1.45-.22,1.3.49,2.63,1.49,4.02,2.99,1.38,1.5,2.48,3.18,3.29,5.06.81,1.88,1.05,3.64.69,5.29-.33,1.52-1.14,2.47-2.42,2.85Z"/>
  <path class="cls-1" d="M260.98,768.33c-1.07.1-2.14.06-3.18-.1-5.88-.9-11.18-5.95-9.77-15.2.22-1.47.57-2.93,1.04-4.35l7.31-22.51c1.95-6.15,3.91-10.96,6.02-14.7,2.57-4.57,5.78-7.96,9.54-10.09.03-.02.06-.03.09-.05,2.38-1.3,4.79-2.1,7.18-2.38.24-.03.48-.05.73-.07,1.48-.13,3.2-.19,5.26-.18,1.25-.01,1.7-.03,1.8-.04.11-.01.2-.02.28-.03.74-.07,1.63-.11,2.67.05,2.55.39,4.83,1.83,6.24,3.95,1.26,1.89,1.75,4.21,1.4,6.53-.29,1.92-1.15,3.75-2.55,5.43-.83,1-1.81,1.92-2.9,2.73-.11.08-.22.16-.33.23-1.71,1.13-3.53,1.79-5.4,1.96-.03,0-.07,0-.1,0-.82.07-1.68.06-2.61-.03-.15.23-.35.54-.56.95-.55,1.03-1.47,3.08-2.72,6.99l-5.08,15.9c2.01,1.9,3.24,4.81,2.68,8.47-.44,2.86-1.7,5.67-3.76,8.35-1.83,2.38-4.01,4.34-6.48,5.83-2.23,1.35-4.52,2.13-6.8,2.34Z"/>
  <path class="cls-1" d="M283.35,770.98c-.96.09-1.92.1-2.88.03-4.7-.32-8.74-2.49-11.36-6.12-2.34-3.23-3.36-7.28-3.04-12.02.3-4.42,1.7-8.92,4.17-13.4,2.39-4.33,5.39-7.99,8.91-10.85,3.55-2.89,7.3-4.53,11.14-4.88.88-.08,1.77-.09,2.64-.03,4.59.31,7.44,2.48,9.02,4.24,1.63,1.81,3.49,4.99,3.16,9.84-.23,3.36-1.42,6.64-3.55,9.76.12.22.23.46.33.69.61,1.46.84,3.01.72,4.78-.21,3.12-1.55,6.24-3.98,9.27-2.03,2.54-4.57,4.65-7.56,6.27-2.49,1.35-5.09,2.16-7.73,2.4Z"/>
  <path class="cls-3" d="M256.89,754.13c.15-1.01.39-2.01.72-2.99l7.33-22.57c1.75-5.54,3.53-9.92,5.33-13.13,1.8-3.21,3.91-5.49,6.31-6.84,1.41-.77,2.76-1.23,4.05-1.38,1.29-.15,2.97-.21,5.03-.2,1.33-.01,2.21-.04,2.63-.08.42-.04.69-.06.81-.04.42.06.59.33.52.79-.06.38-.28.81-.68,1.28-.4.48-.86.91-1.39,1.3-.53.35-1.02.54-1.48.58-.46.04-1.02,0-1.7-.1-1.85-.28-3.48.11-4.89,1.19-1.21.89-2.35,2.32-3.4,4.29-1.05,1.97-2.16,4.78-3.32,8.43l-8.67,27.14c-.09.29-.16.64-.23,1.06-.08.5-.07.86.03,1.07.1.21.27.33.52.37.63.1,1.29-.26,1.97-1.05.68-.8,1.47-1.9,2.38-3.32.12-.24.26-.43.41-.58.15-.15.31-.21.48-.18.38.06.51.44.4,1.16-.22,1.43-.92,2.92-2.1,4.46-1.18,1.54-2.56,2.78-4.12,3.73-1.56.94-3,1.32-4.3,1.12-2.27-.35-3.15-2.18-2.64-5.5Z"/>
  <path class="cls-3" d="M276.46,759.72c-1.15-1.59-1.63-3.74-1.45-6.46.21-3.18,1.26-6.47,3.13-9.86,1.87-3.39,4.15-6.18,6.83-8.36,2.68-2.18,5.3-3.19,7.85-3.02,1.4.09,2.49.57,3.26,1.44.77.86,1.11,2.06,1,3.59-.13,1.91-.88,3.83-2.24,5.76-1.37,1.93-3.18,3.69-5.44,5.26-2.26,1.57-4.76,2.8-7.51,3.68-.07,2.94,1.12,4.49,3.59,4.65,1.36.09,2.67-.24,3.94-1.01,1.27-.77,2.42-1.84,3.45-3.22.24-.37.45-.64.63-.82.18-.18.36-.26.53-.25.25.02.42.11.49.29.07.18.1.48.07.9-.09,1.36-.8,2.87-2.13,4.52-1.33,1.66-2.99,3.03-4.98,4.11-1.99,1.08-3.98,1.55-5.98,1.42-2.21-.15-3.89-1.02-5.04-2.61ZM286.76,745.83c1.02-.59,1.88-1.4,2.59-2.41.71-1.02,1.1-2.14,1.19-3.37.1-1.53-.46-2.33-1.69-2.42-1.32-.09-2.56.66-3.73,2.24-1.17,1.58-2,3.74-2.48,6.48.25.15.64.24,1.2.27.93.06,1.91-.2,2.93-.79Z"/>
  <path class="cls-1" d="M48.19,626.01c-1.2-.28-2.43-.64-3.66-1.06-5.21-1.78-10.28-4.75-15.06-8.81-4.7-3.99-8.61-8.87-11.62-14.5-1.35-2.53-3.1-6.52-5.5-12.55l-.13-.34c-2.01-5.43-3.32-8.24-4.07-9.65-.25-.47-.44-.78-.56-.98-2.58-1.92-4.46-4-5.72-6.37-2.52-4.71-2.49-10.18.08-14.63,1.89-3.27,4.99-5.76,8.98-7.22,4.69-1.72,9.71-2.17,14.92-1.34.78.13,1.57.28,2.36.47.67.16,1.35.34,2.02.54,4.14,1.23,7.74,3.13,10.63,5.57.54-.1,1.14-.23,1.78-.38.16-.04.3-.07.44-.09q41.22-8.41,41.28-8.42c5.46-1.06,10.97-1.28,16.42-.66.8.09,1.62.2,2.42.33,1.3.21,2.65.47,3.99.79,3.21.75,6.52,1.81,9.84,3.14,5.37,2.05,10.14,4.65,14.16,7.73,4.6,3.51,8.32,7.9,11.07,13.03,1.31,2.46,2.32,4.86,2.98,7.14.58,1.99,1.03,4.16,1.35,6.45,1.77,12.85-6.35,17.28-9.93,18.59-2.99,1.1-6.23,1.38-9.64.83-.53-.09-1.08-.19-1.62-.32-1.36-.32-2.75-.77-4.24-1.37-2.84-1.15-5.59-2.67-8.16-4.52-3.57-2.57-5.98-5.16-7.57-8.14-.72-1.34-1.19-2.66-1.55-4.12-1.07.16-2.45.39-4.21.75l-37.83,7.8c.4.34.98.77,1.8,1.25,5.31,2.34,8.09,5.92,9.5,8.55,2.07,3.87,2.38,8.37.86,12.36-1.65,4.31-5.26,7.68-10.18,9.48-4.07,1.49-8.54,1.86-13.29,1.1-.77-.12-1.55-.28-2.34-.46Z"/>
  <path class="cls-1" d="M81.64,677.99c-6.93-1.63-12.49-4.73-16.52-9.23-2.97-3.31-4.73-7.15-5.17-11.08-4.9-1.94-8.9-4.63-11.95-8.03-5.11-5.71-6.59-12.83-4.06-19.52,1.75-4.61,5.21-8.55,10.6-12.06,2.72-1.77,6.42-3.69,11.3-5.86l1.73-.76c-.03-2.12.4-4.25,1.3-6.27,1.3-2.92,3.49-5.39,6.5-7.36,4.13-2.69,9.45-4.21,16.26-4.63,4.3-.27,8.61-.06,12.82.62,1.11.18,2.21.39,3.3.63.21.05.42.09.63.14,6.95,1.63,12.46,4.67,16.37,9.05,3.96,4.42,5.74,9.66,5.12,14.92.14.03.71.16.71.16,6.52,1.59,11.94,4.75,16.09,9.38,2.28,2.54,3.73,5.34,4.29,8.31l.03.18c1.05,5.96-1.61,11.82-6.95,15.3-2.44,1.59-4.96,2.31-7.15,2.78-.29.1-1.08.39-2.63,1.05-.33.14-.66.27-1,.39-.79.28-3.17,1.19-10.37,4.17,0,2.28-.54,4.55-1.62,6.67-1.33,2.61-3.42,4.86-6.2,6.67-4.26,2.78-9.63,4.57-15.96,5.32-4.7.56-9.42.47-14.03-.27-.98-.16-1.96-.35-2.93-.56l-.52-.12Z"/>
  <path class="cls-1" d="M111.7,705.81c-4.48-1.05-8.45-2.89-11.79-5.47-5.64-4.36-8.61-10.52-8.14-16.9.37-5.02,2.78-9.75,7.17-14.05,1.63-1.6,3.74-3.28,6.45-5.15.09-.06.24-.17.4-.27l6.46-4.18c-.1-.66-.16-1.34-.17-2.02-.07-4.27,1.75-8.44,5.11-11.73,3.62-3.54,8.6-6.03,15.24-7.6,4.46-1.05,9.06-1.52,13.71-1.4.27-.22.56-.44.85-.65.14-.1.25-.18.37-.26.04-.03,8.05-5.44,8.05-5.44,4.94-3.27,10.46-4.86,16.42-4.73,1.21.02,2.46.14,3.68.33.64.1,1.29.23,1.93.38,4.24.99,8.34,3,12.17,5.97l.78.61c3.98,3.07,6.28,7.32,6.49,11.96.21,4.79-1.92,9.36-5.84,12.54-.35.28-.7.54-1.07.79l-7.86,5.31c-2.99,2.06-6.29,3.51-9.72,4.3-1.06,1.78-2.42,3.49-4.08,5.12-1.59,1.56-3.86,3.3-7.36,5.66-.06.04-.08.05-5.9,3.85.36,2.05.29,4.17-.24,6.25-.74,2.9-2.33,5.55-4.72,7.89-3.84,3.76-9.01,6.53-15.36,8.21-5.43,1.44-11.02,1.98-16.62,1.61-1.3-.09-2.58-.23-3.8-.43-.88-.14-1.76-.31-2.61-.51Z"/>
  <path class="cls-1" d="M115.25,762.46c-4.03-.95-7.79-2.35-11.15-4.17-6.07-3.28-10.58-7.63-13.4-12.92-2.72-5.1-3.84-10.43-3.35-15.85.47-5.06,2.1-9.64,4.84-13.64,3.29-4.79,7.73-8.22,13.2-10.19,4.33-1.56,8.66-2.29,12.88-2.16,1.83.05,3.42.19,4.87.43.61.1,1.22.22,1.8.35.1.02.19.05.29.07.59-4.5,2.44-8.97,5.62-13.59,4.87-7.08,11.91-13.13,20.94-17.97,8.78-4.72,18.3-7.58,28.27-8.51,5-.46,9.89-.32,14.52.42,1.22.2,2.44.44,3.63.71,4.33,1.01,8.48,2.59,12.33,4.67,2.95,1.59,5.7,3.48,8.17,5.61,2.6,2.24,4.65,4.45,6.27,6.75,4.52,6.41,3.26,14.86-2.91,19.66l-5.22,4.06c-12.5,9.85-17.98,15.08-20.37,17.73-6.8,7.55-6.91,7.66-6.97,7.73-5.83,6.19-10.7,11.05-14.45,14.42-4.33,3.89-8.33,6.85-12.25,9.06-3.89,2.19-8.37,4.06-13.31,5.55-8.48,2.51-16.54,3.57-24.02,3.19-2.24-.12-4.42-.34-6.5-.68-1.26-.2-2.51-.45-3.72-.73Z"/>
  <path class="cls-1" d="M203.87,757.62c-1.07-.25-2.14-.56-3.17-.93-6.09-2.16-10.69-6.22-12.97-11.43-1.58-3.61-2.78-9.53.5-17.2.89-2.07,2.18-4.37,3.97-7.02.11-.16.19-.27.27-.39l4.09-5.67c-.97-1.59-1.66-3.34-2.01-5.19-.6-3.14-.21-6.33,1.14-9.49,2.01-4.69,5.75-8.73,11.45-12.35,3.65-2.32,7.64-4.14,11.9-5.44.1-.17.2-.34.31-.51.1-.16.2-.31.3-.46l5.21-7.57c3.35-4.75,8.12-8.16,13.8-9.87,3.9-1.17,8.11-1.41,12.51-.71.78.13,1.59.28,2.39.47,1.36.32,2.75.73,4.13,1.22l.96.34c4.58,1.63,8.16,4.76,10.06,8.81,2.09,4.45,1.9,9.5-.51,13.85-.21.37-.45.78-.72,1.17l-5.11,7.43c-1.93,2.87-4.35,5.26-7.14,7.1-.29,1.92-.86,3.88-1.7,5.85-.88,2.05-2.26,4.38-4.62,7.8,0,0-1.87,2.62-3.69,5.17,1.14,1.78,1.91,3.78,2.25,5.91.48,3.02.07,6.1-1.24,9.16-2.12,4.95-5.91,9.31-11.28,12.95-4.53,3.07-9.56,5.31-14.96,6.66-4.83,1.2-9.53,1.45-13.98.74-.71-.11-1.43-.26-2.14-.42Z"/>
  <path class="cls-3" d="M17.18,564.94c.12-.21.45-.41.99-.61,2.62-.96,5.49-.98,8.61-.05,3.12.93,5.21,2.38,6.26,4.35l1.2,2.24c3.26.59,7.81.23,13.64-1.1l41.21-8.4c3.75-.73,7.49-.88,11.22-.45,3.72.42,7.7,1.49,11.93,3.19,3.93,1.49,7.29,3.3,10.09,5.45,2.8,2.14,5.06,4.81,6.77,8.01.84,1.56,1.45,3.01,1.83,4.33.38,1.32.69,2.8.92,4.42.26,1.86.19,2.86-.19,3-.62.23-1.72.02-3.3-.62-1.59-.64-3.13-1.5-4.62-2.57-1.5-1.08-2.46-2.02-2.9-2.84-.18-.34-.39-1.24-.62-2.7-.23-1.46-.73-2.91-1.49-4.33-1.16-2.18-2.56-3.66-4.17-4.45-1.88-.94-4.14-1.41-6.77-1.42-2.63-.01-6.23.45-10.79,1.39l-46.39,9.57c-4.48.91-8.32.89-11.49-.06l-.11.04c.56,1.74,1.43,3.97,2.6,6.67,1.17,2.7,2.32,5.11,3.44,7.21,2.11,3.94,4.06,6.82,5.87,8.65,1.8,1.82,4.06,3.45,6.76,4.9,1.13.4,1.9.97,2.3,1.72.29.54-.1,1.01-1.18,1.41-2.08.76-4.72.59-7.93-.51-3.21-1.1-6.42-3.01-9.63-5.74-3.21-2.73-5.87-6.06-7.98-10.01-1.05-1.97-2.66-5.65-4.8-11.05-1.85-5.01-3.49-8.85-4.91-11.5-.95-1.77-1.81-3.08-2.59-3.93-.78-.85-1.54-1.55-2.29-2.09-.75-.54-1.21-.98-1.4-1.32-.18-.34-.21-.61-.09-.82Z"/>
  <path class="cls-3" d="M65.01,630.89c1.99-1.3,5.02-2.85,9.08-4.65l20.7-9.12c1.54-.63,2.77-1.24,3.7-1.85.86-.56,1.05-1.11.57-1.65-.53-.6-1.55-.94-3.06-1.04-1.51-.1-3.99.03-7.45.4-.75.11-1.47.15-2.16.14-.7-.02-1.18-.17-1.45-.47-.53-.6-.24-1.26.89-2,1.73-1.13,4.51-1.81,8.34-2.05,3.83-.24,7.62.05,11.35.87,3.73.82,6.45,2.18,8.15,4.09,1.17,1.31,1.62,2.6,1.34,3.87-.28,1.27-1.25,2.45-2.91,3.53-.4.26-1.12.63-2.15,1.12l-32.01,14.8-1,.65c-.53.35-.86.65-.98.92-.13.27-.03.58.29.94,1.23,1.37,3.91,2.19,8.04,2.46,4.13.27,8.83-.03,14.09-.91,5.25-.88,10.13-2.27,14.64-4.17l5.98-2.48c2.83-1.19,5.82-1.39,8.98-.63,3.16.77,5.7,2.22,7.62,4.37.43.48.67.86.72,1.16.05.3-.12.57-.52.83-.27.17-.93.37-1.99.59-1.06.22-2.85.87-5.36,1.94-2.8.98-12.82,5.11-30.06,12.4-1.73.65-3.22,1.4-4.48,2.22-1.26.82-1.57,1.59-.93,2.31.85.95,2.15,1.38,3.9,1.27,1.75-.1,4.61-.46,8.58-1.07,1.19-.31,1.98-.25,2.35.16.48.54.15,1.17-.97,1.91-2.19,1.43-5.19,2.37-8.99,2.82-3.8.45-7.54.27-11.21-.54-3.67-.81-6.41-2.23-8.23-4.25-2.51-2.8-1.8-5.47,2.11-8.03,1.86-1.21,4.81-2.67,8.86-4.37l-.06-.24c-6,.23-11.61-.16-16.83-1.18-5.23-1.02-8.96-2.78-11.2-5.29-2.77-3.1-1.54-6.35,3.71-9.77Z"/>
  <path class="cls-3" d="M111.74,680.34c.99-.97,2.47-2.14,4.45-3.5l24.64-15.94c1.12-.87,1.79-1.41,2.01-1.63.77-.75.86-1.36.28-1.81-.59-.45-1.67-.59-3.24-.41-1.58.18-3.89.68-6.94,1.5-.18.06-.56.17-1.14.35-.59.17-1.06.27-1.42.28-.36.01-.64-.06-.83-.21-.58-.45-.44-1.11.44-1.97,1.54-1.51,4.15-2.7,7.82-3.57,3.68-.87,7.45-1.15,11.33-.85,3.88.3,6.92,1.3,9.13,3.01,2.73,2.11,2.55,4.67-.52,7.69-.88.86-2.62,2.17-5.22,3.92l-26.15,17.08c-.57.33-.94.58-1.1.74-.66.65-.63,1.24.08,1.8.84.65,2.38.83,4.61.52,2.23-.3,4.82-1.05,7.77-2.23,1.09-.5,1.87-.58,2.32-.23.59.45.41,1.14-.52,2.05-1.93,1.89-4.72,3.31-8.39,4.29-3.67.97-7.38,1.33-11.13,1.08-3.75-.25-6.74-1.23-8.95-2.94-3.19-2.46-2.96-5.47.67-9.02ZM157.38,649.63c0-.24.24-.52.69-.84l7.88-5.33c2.15-1.42,4.47-2.11,6.98-2.05,2.5.05,5.08,1.11,7.75,3.17l.78.6c.71.55.74,1.1.07,1.64l-7.88,5.33c-4.74,3.28-9.71,2.91-14.91-1.11l-.68-.53c-.46-.35-.68-.64-.67-.88Z"/>
  <path class="cls-3" d="M106.09,739.38c-1.37-2.57-1.93-5.16-1.69-7.79.24-2.63,1.04-4.94,2.41-6.92,1.49-2.17,3.42-3.68,5.77-4.53,2.36-.85,4.57-1.24,6.65-1.18,2.08.06,3.45.27,4.12.63.37.2.34.61-.09,1.23-3.71,5.39-5.52,9.57-5.44,12.54.08,2.97,2.07,5.51,5.98,7.63,3.1,1.67,6.08,2.41,8.94,2.22,2.86-.19,5.94-1.14,9.24-2.84,2.43-1.32,4.9-3.15,7.41-5.48,2.52-2.33,7.18-7.06,13.99-14.16,2.72-2.78,4.82-4.76,6.3-5.96,1.48-1.2,2.48-2.03,3.02-2.51l-.22-.12c-5.26,1.91-10.44,3.02-15.55,3.31-5.11.3-8.95-.25-11.53-1.65-2.21-1.2-3.3-3.07-3.25-5.64.04-2.57,1.16-5.43,3.33-8.58,3.53-5.14,8.75-9.56,15.65-13.26,6.89-3.7,14.23-5.92,22.01-6.64,7.78-.72,14.69.55,20.73,3.82,1.92,1.04,3.67,2.24,5.26,3.61,1.59,1.37,2.82,2.67,3.69,3.9l-5.22,4.06c-10.81,8.51-18.25,15.02-22.31,19.53-4.07,4.51-6.31,7-6.72,7.45-5.62,5.96-10.16,10.5-13.6,13.6-3.45,3.1-6.62,5.47-9.5,7.09-2.89,1.62-6.24,3.01-10.07,4.17-6.6,1.95-12.68,2.78-18.25,2.49-5.56-.29-10.26-1.47-14.1-3.54-3.24-1.75-5.55-3.91-6.92-6.48ZM166.91,707.86c4.17-1.06,8.62-2.83,13.37-5.32,4.74-2.49,8.74-5.36,11.99-8.61l3.26-3.2c-1.13-1.89-2.54-3.29-4.24-4.2-2.36-1.28-5.54-1.32-9.54-.13-4,1.19-8.09,3.31-12.26,6.36-4.17,3.05-7.64,6.59-10.41,10.61-1.02,1.49-1.6,2.55-1.74,3.2-.14.65.16,1.17.89,1.57,1.62.88,4.52.78,8.68-.27Z"/>
  <path class="cls-3" d="M204.22,734.38c.52-1.22,1.42-2.78,2.69-4.68l16.31-22.61c.68-1.17,1.08-1.88,1.2-2.16.41-.95.25-1.55-.47-1.81-.72-.26-1.77-.06-3.15.58-1.38.64-3.31,1.82-5.79,3.52-.14.11-.44.33-.91.67-.47.34-.87.57-1.19.69-.33.12-.61.14-.85.05-.72-.26-.85-.93-.38-2.01.81-1.9,2.74-3.82,5.78-5.75,3.04-1.93,6.41-3.34,10.1-4.22,3.69-.88,6.9-.83,9.62.13,3.36,1.19,4.23,3.69,2.6,7.49-.46,1.09-1.55,2.85-3.24,5.3l-17.25,24.15c-.39.49-.63.83-.72,1.04-.35.81-.08,1.38.8,1.69,1.04.37,2.53.08,4.46-.88,1.93-.96,4.02-2.45,6.27-4.46.81-.81,1.49-1.11,2.05-.91.72.26.83.96.34,2.11-1.02,2.38-3.02,4.58-6.01,6.61-2.99,2.03-6.26,3.49-9.82,4.37-3.56.89-6.7.85-9.42-.12-3.92-1.39-4.92-4.33-3-8.81ZM233.96,691.38c-.09-.23,0-.56.29-1.01l5.12-7.45c1.41-2,3.28-3.35,5.61-4.05,2.33-.7,5.13-.47,8.41.7l.96.34c.88.31,1.12.83.72,1.55l-5.12,7.45c-3.05,4.55-7.78,5.69-14.18,3.41l-.84-.3c-.56-.2-.88-.41-.97-.64Z"/>
  <polygon class="cls-1" points="598.91 165.36 597.74 168.23 592.56 182.17 588.18 188.36 588.18 189.89 597.74 181.88 602.68 165.84 602.68 159.98 598.91 165.36"/>
  <polygon class="cls-1" points="432.33 70.53 429.96 70.89 423.85 76.64 419.05 79.06 415.98 78.03 425.64 69.03 430.46 67.49 435 68.02 432.33 70.53"/>
  <g>
    <path class="cls-1" d="M161.17,768.43c.07-.92.54-1.93,1.41-3.04,1.4-1.77,3.36-3.29,5.88-4.58,2.52-1.29,5.18-2.05,7.97-2.29,2.79-.24,5.25.23,7.37,1.44.68.38,1.3.83,1.87,1.35.57.51.98.99,1.25,1.43-.6.36-1.06.67-1.38.94-.31.27-.52.44-.61.51-.79.7-1.97,1.77-3.56,3.19-1.59,1.42-3.1,2.77-4.54,4.05-.66.56-1.13,1.02-1.4,1.37-.19.24-.27.44-.27.6,0,.16.1.3.29.4.45.26,1.02.28,1.74.04.71-.23,1.59-.63,2.63-1.19.15-.1.3-.17.45-.21.14-.04.28-.02.42.05.24.14.24.36,0,.67-.12.15-.22.27-.32.34-.77.76-1.75,1.38-2.93,1.87-1.18.49-2.37.76-3.58.81-1.2.05-2.23-.18-3.06-.67-.68-.4-1.05-.92-1.11-1.55-.06-.63.18-1.29.72-1.98.13-.17.36-.42.68-.73.35-.33.7-.66,1.06-.99-.03-.01-.05-.03-.08-.04-1.91.65-3.79.99-5.64,1.04-1.85.04-3.23-.2-4.15-.74-.81-.47-1.18-1.17-1.12-2.09ZM170.23,768.67c1.56-.32,3.23-.9,5.02-1.75,1.78-.85,3.3-1.85,4.55-3,.42-.38.84-.76,1.26-1.14-.4-.71-.88-1.22-1.43-1.53-.84-.48-2.01-.52-3.52-.13-1.51.39-3.06,1.11-4.65,2.16-1.59,1.05-2.93,2.28-4.02,3.68-.4.52-.63.89-.68,1.13-.05.24.04.42.28.56.57.33,1.64.34,3.2.02Z"/>
    <path class="cls-1" d="M183.95,779.14c.43-.7,1.15-1.62,2.17-2.77,1.73-1.94,3.47-3.9,5.2-5.87.4-.42.69-.8.89-1.14.18-.31.15-.52-.1-.64-.28-.13-.67-.11-1.18.06-.51.17-1.3.55-2.36,1.15-.23.14-.45.25-.68.34-.23.09-.42.1-.55.03-.28-.13-.29-.4-.05-.8.37-.61,1.16-1.22,2.37-1.82,1.21-.6,2.5-1.02,3.86-1.26,1.36-.24,2.48-.15,3.37.26.61.29.98.66,1.1,1.14.13.47.01,1.01-.34,1.61-.08.15-.25.37-.51.68-2.63,3.17-5.27,6.3-7.91,9.39-.07.12-.14.24-.21.35-.11.19-.17.34-.16.45,0,.11.09.2.26.28.64.31,1.66.24,3.06-.21,1.4-.45,2.89-1.18,4.45-2.19,1.57-1.01,2.92-2.16,4.06-3.44.51-.56,1.01-1.12,1.52-1.69.72-.8,1.66-1.3,2.82-1.48,1.16-.18,2.25-.04,3.24.44.22.1.37.2.44.3.07.09.06.22-.02.36-.06.1-.24.26-.55.49-.31.23-.78.71-1.41,1.43-.74.73-3.3,3.59-7.68,8.42-.45.46-.81.91-1.08,1.36-.27.45-.24.76.09.92.44.22.94.19,1.5-.07.55-.27,1.43-.77,2.62-1.52.34-.27.6-.36.8-.26.25.12.25.39.01.8-.47.79-1.29,1.52-2.45,2.19-1.17.66-2.42,1.09-3.77,1.29-1.34.2-2.49.06-3.43-.41-1.31-.65-1.54-1.66-.7-3.05.4-.66,1.11-1.55,2.15-2.67-.02-.03-.04-.05-.06-.08-1.92.88-3.83,1.47-5.72,1.79-1.89.32-3.42.19-4.58-.38-1.44-.71-1.6-1.97-.47-3.81Z"/>
    <path class="cls-1" d="M204.67,810.08c-.29-.27-.56-.7-.84-1.3-.35-.92-.45-1.55-.31-1.91.1-.25.35-.31.73-.17.24.09.64.32,1.2.7,1.02.7,1.94,1.2,2.77,1.5,1.49.55,2.79.73,3.91.56,1.12-.18,2.23-.81,3.31-1.89,1.08-1.09,2.31-2.79,3.68-5.13,3.53-5.97,7.04-12.04,10.54-18.21-.7-.23-1.39-.46-2.09-.69-.68-.22-1.29-.32-1.84-.29-.54.03-.87.03-.99-.01-.27-.09-.35-.25-.26-.49.1-.27.27-.51.52-.73.63-.63,1.41-1.09,2.33-1.37.92-.28,1.78-.3,2.58-.04.52.17,1.04.34,1.55.51.12-.23.24-.47.36-.7,3.19-5.43,6.69-9.07,10.52-10.89,1.4-.7,2.64-1.1,3.74-1.19,1.1-.09,2.25-.05,3.46.14.96.14,1.6.22,1.9.24.3.02.5.04.59.06.27.08.34.28.24.58-.09.25-.3.52-.65.8-.34.28-.73.53-1.16.73-.39.19-.77.26-1.11.23-.35-.03-.78-.12-1.28-.28-1.18-.37-2.32-.24-3.42.37-1.13.6-2.36,1.76-3.68,3.46-1.32,1.7-2.87,4.11-4.66,7.2-.13.23-.27.46-.4.69.61.2,1.21.4,1.82.6.89.29,1.62.42,2.19.4.57-.03.92-.02,1.04.02.3.1.39.28.3.56-.08.22-.23.46-.46.72-.54.59-1.3,1.04-2.26,1.36-.96.32-1.85.35-2.65.08-.58-.19-1.16-.38-1.73-.57-2.56,4.51-5.12,8.98-7.69,13.39-3.19,5.52-6.43,9.19-9.69,11.08-3.27,1.89-6.75,2.12-10.43.75-.83-.31-1.39-.6-1.68-.86Z"/>
    <path class="cls-1" d="M235.04,802.2c-.61-1.23-.65-2.72-.14-4.48.61-2.06,1.82-4.07,3.65-6.03,1.83-1.96,3.86-3.49,6.1-4.56,2.24-1.08,4.27-1.39,6.08-.91,1,.26,1.72.74,2.15,1.43.44.69.52,1.55.23,2.57-.36,1.27-1.16,2.46-2.42,3.56-1.26,1.1-2.81,2.01-4.66,2.71-1.85.71-3.83,1.14-5.94,1.3-.46,1.93.18,3.15,1.94,3.65.97.28,1.97.26,2.99-.05,1.02-.31,2.01-.85,2.94-1.62.22-.21.41-.36.57-.45.16-.09.3-.12.42-.09.18.05.29.14.32.27.03.13,0,.33-.08.62-.26.9-.98,1.8-2.17,2.7-1.19.9-2.59,1.55-4.18,1.95-1.59.4-3.11.39-4.53-.03-1.58-.46-2.67-1.3-3.28-2.53ZM244.45,794.61c.82-.24,1.56-.65,2.21-1.23.65-.58,1.1-1.27,1.33-2.09.29-1.01,0-1.63-.88-1.87-.94-.25-1.94.07-3.01.95-1.07.89-1.97,2.2-2.7,3.95.16.13.43.25.83.36.67.18,1.41.16,2.23-.08Z"/>
    <path class="cls-1" d="M254.98,805.73c.16-.87.52-2.05,1.09-3.56.97-2.55,1.93-5.12,2.89-7.69.23-.56.38-1.04.46-1.45.07-.38-.04-.59-.31-.64-.31-.06-.68.08-1.1.41-.43.33-1.04.96-1.85,1.88-.17.21-.34.39-.53.55-.19.16-.36.22-.51.2-.31-.06-.42-.33-.33-.82.14-.75.68-1.61,1.63-2.6.94-.98,2.02-1.79,3.24-2.43,1.21-.64,2.31-.88,3.3-.7.68.12,1.16.41,1.44.87.28.46.36,1.05.23,1.79-.03.18-.11.46-.25.86-1.42,4.09-2.84,8.15-4.26,12.19-.03.15-.05.29-.08.44-.04.23-.04.41,0,.52.04.12.16.19.34.23.71.14,1.65-.23,2.82-1.12,1.17-.89,2.32-2.1,3.46-3.63,1.14-1.53,2.03-3.14,2.68-4.81.29-.74.58-1.48.87-2.22.41-1.05,1.14-1.85,2.19-2.38,1.05-.53,2.13-.71,3.24-.51.25.04.42.1.52.18.1.08.13.21.1.39-.02.12-.14.34-.36.67-.22.33-.5.97-.86,1.92-.46.99-1.92,4.74-4.4,11.15-.27.62-.45,1.21-.55,1.77-.1.56.04.87.41.95.5.1.96-.08,1.39-.53.43-.45,1.09-1.25,1.96-2.4.23-.38.45-.56.67-.52.28.05.37.33.29.84-.17.98-.69,2-1.57,3.05-.88,1.05-1.91,1.89-3.11,2.5-1.2.61-2.33.81-3.38.6-1.46-.3-2.03-1.3-1.72-3.03.15-.82.51-1.97,1.1-3.46-.03-.02-.06-.04-.08-.06-1.52,1.49-3.11,2.69-4.79,3.59-1.67.9-3.16,1.21-4.46.95-1.61-.33-2.2-1.63-1.78-3.91Z"/>
    <path class="cls-1" d="M292.88,813.87c-.54-.98-.79-2.27-.77-3.87.03-2.5.7-5.06,1.99-7.73,1.29-2.66,3-4.87,5.12-6.63,2.12-1.76,4.38-2.63,6.79-2.6.05,0,.09,0,.14,0,1.04-4.22,1.98-7.41,2.83-9.57.85-2.15,1.96-3.96,3.34-5.43,1.19-1.24,2.33-2.09,3.41-2.53,1.08-.44,2.3-.78,3.67-1.03,1-.18,1.65-.31,1.96-.39.31-.08.5-.13.56-.13.25,0,.37.17.37.52,0,.29-.11.63-.33,1.04-.22.4-.49.78-.8,1.14-.34.29-.69.49-1.03.59-.34.1-.78.15-1.31.16-1.78.15-3.25,1.15-4.41,2.99-.69,1.11-1.28,2.59-1.76,4.42-.48,1.83-1.24,5.4-2.29,10.68,0,.09-.49,2.67-1.48,7.71-.62,3.1-.97,4.81-1.04,5.16-.2.94-.3,1.65-.3,2.16,0,.34.05.6.16.76.11.16.27.25.49.25.53.02,1.02-.28,1.45-.9.43-.62.92-1.51,1.46-2.7.03-.03.08-.12.14-.26.06-.14.14-.24.21-.3.08-.06.17-.09.26-.09.25,0,.38.29.37.86,0,1.07-.35,2.22-1.02,3.45-.67,1.22-1.53,2.25-2.58,3.07-1.05.83-2.08,1.22-3.09,1.17-.82-.03-1.46-.36-1.91-.97-.45-.61-.67-1.42-.66-2.42,0-.25.04-.62.11-1.12.08-.53.17-1.06.25-1.58-.03,0-.06,0-.09,0-1.18,1.71-2.53,3.09-4.04,4.15-1.51,1.06-2.82,1.55-3.92,1.5-.98-.04-1.73-.56-2.27-1.54ZM300.59,809.21c1.1-1.18,2.13-2.68,3.09-4.51.96-1.83,1.61-3.67,1.94-5.51.12-.61.23-1.22.35-1.83-.78-.48-1.5-.73-2.16-.75-1-.02-2.02.58-3.05,1.79-1.03,1.21-1.88,2.77-2.55,4.69-.67,1.92-1.01,3.89-1.04,5.9,0,.74.04,1.25.15,1.52.11.27.3.41.59.42.69.03,1.59-.54,2.69-1.72Z"/>
    <path class="cls-1" d="M316.57,814.26c-1.01-1.08-1.58-2.63-1.72-4.66-.16-2.37.27-4.89,1.29-7.57,1.02-2.68,2.4-4.97,4.14-6.87,1.74-1.9,3.54-2.93,5.41-3.07,1.03-.08,1.87.16,2.52.72.65.56,1.02,1.42,1.11,2.58.11,1.44-.24,2.97-1.04,4.55-.8,1.59-1.94,3.08-3.43,4.48-1.49,1.39-3.19,2.54-5.11,3.45.25,2.19,1.28,3.24,3.1,3.14,1-.05,1.93-.42,2.78-1.12.85-.69,1.58-1.6,2.19-2.74.14-.3.26-.52.38-.68.11-.15.23-.23.36-.24.19-.01.32.04.39.17.07.12.12.35.14.67.07,1.03-.29,2.23-1.09,3.6-.8,1.37-1.87,2.54-3.22,3.53-1.35.98-2.76,1.51-4.24,1.58-1.64.08-2.96-.43-3.96-1.51ZM322.7,803.01c.69-.54,1.23-1.23,1.65-2.05.41-.83.59-1.71.52-2.64-.08-1.15-.58-1.69-1.48-1.63-.97.07-1.8.75-2.49,2.05-.69,1.3-1.08,2.98-1.15,5.06.19.08.5.11.9.09.69-.04,1.38-.33,2.06-.87Z"/>
    <path class="cls-1" d="M352.54,812.13c-.4.02-.65.02-.75,0-.59-.05-1.17,0-1.76.11-.71.15-1.28.35-1.71.6-.03,0-.06.01-.09.02.11-1.53.13-3,.08-4.4-.26-6.26-.52-12.52-.79-18.77-.16-4.16-.06-7.67.29-10.53.36-2.86,1.08-5.24,2.17-7.13.86-1.43,1.83-2.53,2.89-3.28,1.06-.75,2.26-1.42,3.58-2.01.91-.41,1.51-.7,1.8-.86.29-.16.48-.26.57-.28.27-.07.44.07.52.42.05.26,0,.62-.14,1.09-.15.47-.35.94-.6,1.41-.28.35-.58.62-.89.82-.31.2-.71.37-1.2.49-.84.29-1.6.73-2.3,1.34-.69.61-1.25,1.52-1.68,2.74-.52,1.42-.83,3.33-.94,5.74-.11,2.41,0,5.93.32,10.58.09,1.35.19,2.69.28,4.04.03,0,.06-.01.09-.02.72-2.16,1.62-3.97,2.71-5.43,1.08-1.46,2.22-2.34,3.41-2.63,2.2-.54,3.72,1.26,4.56,5.44.63,3.13.67,6.18.09,9.13-.58,2.95-1.67,5.44-3.29,7.45-1.62,2.01-3.59,3.25-5.9,3.74-.49.1-.94.16-1.34.18ZM357.88,805.41c.63-1.28.99-2.87,1.08-4.78.1-1.91-.07-3.91-.49-5.99-.21-1.04-.44-1.79-.7-2.26-.25-.46-.58-.65-.98-.56-.67.16-1.37.95-2.1,2.35-.73,1.41-1.29,3.12-1.68,5.15-.39,2.03-.52,4.03-.38,5.99.04.7.09,1.4.13,2.1.81.37,1.65.46,2.51.27,1.11-.24,1.98-1,2.6-2.28Z"/>
    <path class="cls-1" d="M369.98,806.38c-1.13-.85-1.98-2.32-2.57-4.42-.73-2.6-.85-5.41-.38-8.45.48-3.03,1.4-5.72,2.75-8.07,1.36-2.35,2.9-3.84,4.63-4.45,1.4-.5,2.65-.32,3.75.53,1.09.85,1.93,2.3,2.5,4.34.7,2.5.86,5.3.46,8.39-.39,3.1-1.25,5.84-2.56,8.23-1.32,2.39-2.91,3.88-4.78,4.48-1.42.46-2.69.25-3.81-.6ZM376.94,799.76c.42-1.19.6-2.66.53-4.41-.07-1.75-.37-3.58-.9-5.49-.45-1.62-.95-2.72-1.47-3.32-.53-.59-1.14-.77-1.82-.53-.81.28-1.44.98-1.89,2.11-.46,1.12-.68,2.53-.69,4.22,0,1.69.26,3.48.8,5.39.92,3.29,2.11,4.7,3.55,4.23.84-.28,1.47-1.01,1.9-2.2Z"/>
    <path class="cls-1" d="M389.54,797.81c-.2-.58-.4-1.38-.59-2.4-.66-4.17-1.31-8.34-1.96-12.5-.14-.6-.24-.96-.28-1.09-.16-.44-.36-.61-.63-.49-.26.12-.49.48-.68,1.1-.19.62-.38,1.57-.56,2.86,0,.08-.03.24-.06.49-.03.25-.07.44-.13.58-.05.13-.13.22-.21.26-.26.11-.48-.08-.66-.59-.31-.89-.33-2.1-.06-3.63.27-1.53.78-2.97,1.51-4.33.74-1.36,1.6-2.26,2.59-2.72,1.22-.56,2.14.05,2.77,1.83.18.51.38,1.43.62,2.77.72,4.44,1.44,8.89,2.16,13.35.03.28.06.47.1.57.13.38.36.51.68.36.38-.17.69-.69.94-1.58.25-.89.38-2.01.42-3.36-.01-.51.08-.82.29-.91.26-.12.49.1.68.64.4,1.12.48,2.47.26,4.04-.23,1.57-.69,3.02-1.39,4.34-.7,1.33-1.55,2.2-2.54,2.63-1.44.62-2.53-.14-3.27-2.25ZM385.48,774.42c-.09-.05-.15-.2-.2-.43-.24-1.34-.47-2.69-.71-4.03-.18-1.09-.06-2.09.36-3,.42-.91,1.23-1.65,2.41-2.2.12-.05.23-.11.35-.16.32-.15.52-.04.62.32.24,1.35.47,2.69.71,4.04.45,2.45-.48,4.21-2.8,5.27-.1.05-.2.09-.31.14-.2.09-.35.11-.43.06Z"/>
    <path class="cls-1" d="M403.18,794.73c-.78-.05-1.43-.25-1.95-.61-.52-.36-.88-.75-1.09-1.18-.32-.52-.44-1.18-.35-1.97.09-.79.32-1.6.71-2.42.24-.51.43-.8.57-.88.11-.06.25-.05.41.04.16.09.33.22.5.39.66.76,1.33,1.3,1.99,1.64.66.34,1.4.29,2.23-.16.68-.37,1.16-.88,1.42-1.52.27-.65.26-1.3-.01-1.97-.17-.41-.51-.84-1-1.28-.5-.44-1.32-1.05-2.48-1.81-.49-.31-.99-.62-1.48-.93-1.29-.84-2.19-1.48-2.72-1.95-.52-.46-.92-1.01-1.18-1.63-.52-1.25-.68-2.59-.47-4.05.21-1.46.72-2.8,1.54-4.04.82-1.24,1.85-2.21,3.09-2.91,1.1-.62,2.11-.9,3.05-.83.93.07,1.57.51,1.91,1.32.25.6.29,1.41.13,2.43-.16.71-.35,1.13-.57,1.25-.11.06-.21.08-.29.05-.08-.03-.18-.08-.3-.15-.12-.07-.22-.14-.32-.2-1.08-.67-2.14-.71-3.19-.12-.68.38-1.16.86-1.43,1.44-.28.58-.29,1.18-.03,1.8.2.47.5.85.9,1.15.4.3.98.64,1.74,1.03.38.21.77.42,1.15.64.52.29,1.04.58,1.57.87.92.54,1.65,1.07,2.19,1.61.54.54.98,1.21,1.32,2.03.63,1.52.77,3.11.4,4.77-.37,1.66-1.06,3.16-2.08,4.51-1.02,1.34-2.12,2.33-3.28,2.95-.94.5-1.8.72-2.58.68Z"/>
  </g>
</svg>